{"glyphs":{"0":{"ha":299,"x_min":0,"x_max":0,"o":"m 148 -10 b 281 134 231 -10 281 50 l 281 1254 b 151 1398 281 1338 231 1398 l 149 1398 b 18 1254 68 1398 18 1338 l 18 134 b 148 -10 18 50 68 -10 z m 84 134 l 84 1254 b 149 1332 84 1304 107 1332 l 151 1332 b 215 1254 192 1332 215 1304 l 215 134 b 149 56 215 84 192 56 l 148 56 b 84 134 107 56 84 84 z "},"1":{"ha":208,"x_min":0,"x_max":0,"o":"m 117 1208 l 117 0 l 183 0 l 183 1389 l 131 1389 l 0 1167 l 50 1125 l 103 1210 b 115 1237 106 1215 114 1229 l 121 1235 b 117 1208 118 1224 117 1214 z "},"2":{"ha":299,"x_min":0,"x_max":0,"o":"m 37 0 l 280 0 l 280 66 l 99 66 l 157 447 b 281 1255 173 547 281 1025 b 150 1398 281 1341 229 1398 l 149 1398 b 18 1255 70 1398 18 1341 l 18 1039 l 84 1039 l 84 1255 b 149 1333 84 1305 107 1333 b 215 1255 192 1333 215 1305 b 99 479 215 1069 117 600 l 37 67 z "},"3":{"ha":299,"x_min":0,"x_max":0,"o":"m 148 -10 b 281 134 229 -10 281 48 l 281 602 b 226 704 281 643 267 704 l 226 711 b 281 810 262 711 281 768 l 281 1254 b 150 1398 281 1344 224 1398 l 149 1398 b 18 1254 70 1398 18 1340 l 18 1039 l 84 1039 l 84 1254 b 149 1332 84 1304 107 1332 b 215 1254 192 1332 215 1304 l 215 810 b 147 740 215 762 185 740 l 80 740 l 80 675 l 147 675 b 215 602 192 675 215 650 l 215 134 b 149 56 215 84 192 56 l 148 56 b 84 134 107 56 84 84 l 84 380 l 18 380 l 18 134 b 148 -10 18 44 75 -10 z "},"4":{"ha":336,"x_min":0,"x_max":0,"o":"m 203 0 l 269 0 l 269 351 l 317 351 l 317 417 l 269 417 l 269 1389 l 194 1389 l -4 351 l 203 351 z m 75 417 b 76 432 75 417 75 428 l 195 1055 b 201 1116 197 1064 200 1090 l 206 1116 b 203 1037 204 1084 203 1047 l 203 417 z "},"5":{"ha":299,"x_min":0,"x_max":0,"o":"m 148 -9 b 281 135 229 -9 281 49 l 281 657 b 154 792 281 744 239 792 b 93 760 131 792 97 787 l 87 761 b 93 815 89 774 91 798 l 99 1322 l 262 1322 l 262 1388 l 36 1388 l 20 615 l 87 615 b 151 728 89 703 112 728 l 151 728 b 215 657 200 728 215 707 l 215 135 b 149 57 215 85 192 57 l 148 57 b 84 135 107 57 84 85 l 84 382 l 18 382 l 18 135 b 148 -9 18 45 74 -9 z "},"6":{"ha":301,"x_min":0,"x_max":0,"o":"m 151 -10 l 152 -10 b 283 134 232 -10 283 48 l 283 656 b 154 796 283 743 239 796 l 153 796 b 87 764 130 796 89 784 l 81 765 b 84 1226 83 782 84 1210 l 84 1254 b 148 1332 84 1304 107 1332 b 213 1254 190 1332 213 1304 l 213 1039 l 279 1039 l 279 1254 b 150 1398 279 1339 228 1398 l 148 1398 b 18 1254 69 1398 18 1339 l 18 1226 b 21 134 18 1174 21 668 b 151 -10 21 44 77 -10 z m 87 134 l 87 650 b 153 730 87 692 112 730 b 217 656 202 730 217 706 l 217 134 b 152 56 217 84 194 56 l 151 56 b 87 134 110 56 87 84 z "},"7":{"ha":269,"x_min":0,"x_max":0,"o":"m 184 1310 l 42 0 l 105 0 l 251 1344 l 251 1389 l 7 1389 l 7 1323 l 187 1323 b 184 1310 186 1321 184 1314 z "},"8":{"ha":299,"x_min":0,"x_max":0,"o":"m 148 -10 b 281 134 229 -10 281 48 l 281 603 b 232 702 281 645 268 702 l 232 708 b 281 810 263 708 281 765 l 281 1254 b 150 1398 281 1340 229 1398 l 149 1398 b 18 1254 70 1398 18 1340 l 18 810 b 67 708 18 765 36 708 l 67 702 b 18 603 31 702 18 645 l 18 134 b 148 -10 18 48 70 -10 z m 84 134 l 84 603 b 148 673 84 648 105 673 b 215 603 193 673 215 648 l 215 134 b 149 56 215 84 192 56 l 148 56 b 84 134 107 56 84 84 z m 84 810 l 84 1254 b 149 1332 84 1304 107 1332 l 151 1332 b 215 1254 192 1332 215 1304 l 215 810 b 151 740 215 765 194 740 l 149 740 b 84 810 105 740 84 765 z "},"9":{"ha":301,"x_min":0,"x_max":0,"o":"m 152 -10 l 153 -10 b 283 134 232 -10 283 49 l 283 162 b 281 1254 283 631 281 1202 b 150 1398 281 1344 224 1398 l 149 1398 b 18 1254 70 1398 18 1340 l 18 753 b 148 613 18 666 63 613 b 215 646 172 613 212 625 l 221 645 b 217 579 218 627 217 594 l 217 134 b 153 56 217 84 194 56 l 152 56 b 88 134 111 56 88 84 l 88 380 l 23 380 l 23 134 b 152 -10 23 49 74 -10 z m 84 753 l 84 1254 b 149 1332 84 1304 107 1332 l 151 1332 b 215 1254 192 1332 215 1304 l 215 760 b 148 679 215 717 190 679 l 148 679 b 84 753 99 679 84 703 z "}," ":{"ha":102,"x_min":0,"x_max":0,"o":""},"A":{"ha":395,"x_min":0,"x_max":0,"o":"m -4 0 l 138 0 l 164 314 l 233 314 l 256 0 l 399 0 l 295 1388 l 101 1388 z m 167 465 l 167 469 l 168 479 l 192 998 b 194 1094 193 1013 194 1081 l 200 1094 b 202 998 200 1083 202 1013 l 229 479 l 229 469 l 230 465 l 229 464 l 226 465 l 171 465 l 167 464 z "},"Á":{"ha":395,"x_min":0,"x_max":0,"o":"m -4 0 l 138 0 l 164 314 l 233 314 l 256 0 l 399 0 l 295 1388 l 101 1388 z m 118 1453 l 129 1403 l 270 1434 l 260 1485 z m 167 465 l 167 469 l 168 479 l 192 998 b 194 1094 193 1013 194 1081 l 200 1094 b 202 998 200 1083 202 1013 l 229 479 l 229 469 l 230 465 l 229 464 l 226 465 l 171 465 l 167 464 z "},"Ă":{"ha":395,"x_min":0,"x_max":0,"o":"m -4 0 l 138 0 l 164 314 l 233 314 l 256 0 l 399 0 l 295 1388 l 101 1388 z m 117 1485 b 197 1405 117 1444 152 1405 b 277 1485 242 1405 277 1444 l 226 1485 b 197 1456 226 1467 216 1456 b 168 1485 178 1456 168 1467 z m 167 465 l 167 469 l 168 479 l 192 998 b 194 1094 193 1013 194 1081 l 200 1094 b 202 998 200 1083 202 1013 l 229 479 l 229 469 l 230 465 l 229 464 l 226 465 l 171 465 l 167 464 z "},"Â":{"ha":395,"x_min":0,"x_max":0,"o":"m -4 0 l 138 0 l 164 314 l 233 314 l 256 0 l 399 0 l 295 1388 l 101 1388 z m 110 1452 l 129 1405 l 197 1433 l 265 1405 l 284 1452 l 197 1488 z m 167 465 l 167 469 l 168 479 l 192 998 b 194 1094 193 1013 194 1081 l 200 1094 b 202 998 200 1083 202 1013 l 229 479 l 229 469 l 230 465 l 229 464 l 226 465 l 171 465 l 167 464 z "},"Ä":{"ha":395,"x_min":0,"x_max":0,"o":"m -4 0 l 138 0 l 164 314 l 233 314 l 256 0 l 399 0 l 295 1388 l 101 1388 z m 108 1444 b 148 1404 108 1422 126 1404 b 188 1444 170 1404 188 1421 b 148 1484 188 1465 170 1484 b 108 1444 126 1484 108 1466 z m 167 465 l 167 469 l 168 479 l 192 998 b 194 1094 193 1013 194 1081 l 200 1094 b 202 998 200 1083 202 1013 l 228 479 l 229 469 l 230 465 l 229 464 l 226 465 l 170 465 l 167 464 z m 208 1444 b 248 1404 208 1422 225 1404 b 287 1444 270 1404 287 1421 b 248 1484 287 1465 270 1484 b 208 1444 225 1484 208 1466 z "},"À":{"ha":395,"x_min":0,"x_max":0,"o":"m -4 0 l 138 0 l 164 314 l 233 314 l 256 0 l 399 0 l 295 1388 l 101 1388 z m 119 1434 l 265 1403 l 276 1453 l 130 1485 z m 167 465 l 167 469 l 168 479 l 192 998 b 194 1094 193 1013 194 1081 l 200 1094 b 202 998 200 1083 202 1013 l 229 479 l 229 469 l 230 465 l 229 464 l 226 465 l 170 465 l 167 464 z "},"Ā":{"ha":395,"x_min":0,"x_max":0,"o":"m -4 0 l 138 0 l 164 314 l 233 314 l 256 0 l 399 0 l 295 1388 l 101 1388 z m 119 1416 l 277 1416 l 277 1467 l 119 1467 z m 167 465 l 167 469 l 168 479 l 192 998 b 194 1094 193 1013 194 1081 l 200 1094 b 202 998 200 1083 202 1013 l 229 479 l 229 469 l 230 465 l 229 464 l 226 465 l 170 465 l 167 464 z "},"Ą":{"ha":395,"x_min":0,"x_max":0,"o":"m 345 -117 b 395 -100 363 -117 374 -110 l 371 -51 b 346 -62 352 -60 349 -62 b 338 -54 339 -62 338 -61 b 374 0 338 -46 352 -30 l 399 0 l 295 1388 l 101 1388 l -4 0 l 138 0 l 164 314 l 233 314 l 257 0 l 306 0 b 283 -54 292 -20 283 -37 b 345 -117 284 -91 317 -117 z m 167 465 l 167 469 l 168 479 l 192 998 b 194 1094 193 1013 194 1081 l 200 1094 b 202 998 200 1083 202 1013 l 229 479 l 229 469 l 230 465 l 229 464 l 226 465 l 171 465 l 167 464 z "},"Å":{"ha":395,"x_min":0,"x_max":0,"o":"m -4 0 l 138 0 l 164 314 l 233 314 l 256 0 l 399 0 l 295 1388 l 101 1388 z m 123 1481 b 198 1406 123 1440 156 1406 b 273 1481 239 1406 273 1440 b 198 1556 273 1522 239 1556 b 123 1481 156 1556 123 1522 z m 167 465 l 167 469 l 168 479 l 192 998 b 194 1094 193 1013 194 1081 l 200 1094 b 202 998 200 1083 202 1013 l 229 479 l 229 469 l 230 465 l 229 464 l 226 465 l 170 465 l 167 464 z m 178 1481 b 198 1501 178 1496 183 1501 b 218 1481 213 1501 218 1496 b 198 1461 218 1466 213 1461 b 178 1481 183 1461 178 1466 z "},"Ã":{"ha":395,"x_min":0,"x_max":0,"o":"m -4 0 l 138 0 l 164 314 l 233 314 l 256 0 l 399 0 l 295 1388 l 101 1388 z m 94 1447 b 164 1414 107 1431 132 1414 b 230 1437 197 1414 214 1437 b 262 1423 245 1437 254 1431 l 299 1458 b 230 1488 286 1472 261 1488 b 164 1466 198 1488 180 1466 b 134 1479 148 1466 140 1471 z m 167 465 l 167 469 l 168 479 l 192 998 b 194 1094 193 1013 194 1081 l 200 1094 b 202 998 200 1083 202 1013 l 228 479 l 229 469 l 230 465 l 229 464 l 226 464 b 218 465 222 465 220 465 l 178 465 b 170 464 175 465 174 465 l 167 464 z "},"Æ":{"ha":538,"x_min":0,"x_max":0,"o":"m -4 0 l 138 0 l 169 322 l 253 322 l 253 0 l 520 0 l 520 151 l 392 151 l 392 626 l 520 626 l 520 762 l 392 762 l 392 1238 l 520 1238 l 520 1388 l 191 1388 z m 177 466 b 180 482 179 475 179 477 l 239 952 b 246 1046 241 969 246 1012 l 253 1046 l 253 465 l 202 465 b 179 463 189 465 185 465 z "},"B":{"ha":356,"x_min":0,"x_max":0,"o":"m 18 0 l 175 0 b 352 148 283 0 352 50 l 352 589 b 279 698 352 642 330 698 l 279 704 b 348 798 313 704 348 749 l 348 1240 b 175 1389 348 1338 287 1389 l 18 1389 z m 156 149 l 156 638 l 174 638 b 204 613 202 638 204 617 l 204 171 b 175 149 205 164 197 149 z m 156 754 l 156 1241 l 175 1241 b 204 1218 195 1241 204 1229 l 204 775 b 175 754 204 766 192 754 z "},"C":{"ha":352,"x_min":0,"x_max":0,"o":"m 170 -9 l 178 -9 b 341 197 341 -9 341 126 l 341 635 l 203 635 l 203 204 b 180 142 203 156 200 142 l 173 142 b 152 205 154 142 152 158 l 152 1183 b 173 1248 152 1231 155 1247 l 179 1248 b 203 1184 200 1248 203 1232 l 203 760 l 341 760 l 341 1192 b 178 1398 341 1264 341 1398 l 170 1398 b 11 1192 12 1398 11 1259 l 11 197 b 170 -9 11 131 11 -9 z "},"Ć":{"ha":352,"x_min":0,"x_max":0,"o":"m 170 -9 l 178 -9 b 341 197 341 -9 341 126 l 341 635 l 203 635 l 203 204 b 180 142 203 156 200 142 l 173 142 b 152 205 154 142 152 158 l 152 1183 b 173 1248 152 1231 155 1247 l 179 1248 b 203 1184 200 1248 203 1232 l 203 760 l 341 760 l 341 1192 b 178 1398 341 1264 341 1398 l 170 1398 b 11 1192 12 1398 11 1259 l 11 197 b 170 -9 11 131 11 -9 z m 100 1457 l 111 1407 l 253 1439 l 242 1488 z "},"Č":{"ha":352,"x_min":0,"x_max":0,"o":"m 170 -9 l 178 -9 b 341 197 341 -9 341 126 l 341 635 l 203 635 l 203 204 b 180 142 203 156 200 142 l 173 142 b 152 205 154 142 152 158 l 152 1183 b 173 1248 152 1231 155 1247 l 179 1248 b 203 1184 200 1248 203 1232 l 203 760 l 341 760 l 341 1192 b 178 1398 341 1264 341 1398 l 170 1398 b 11 1192 12 1398 11 1259 l 11 197 b 170 -9 11 131 11 -9 z m 88 1440 l 174 1405 l 259 1440 l 239 1488 l 174 1461 l 108 1488 z "},"Ç":{"ha":352,"x_min":0,"x_max":0,"o":"m 175 -157 b 244 -89 213 -157 244 -127 b 200 -31 244 -59 226 -39 l 205 -7 b 341 197 341 7 341 130 l 341 635 l 203 635 l 203 204 b 180 142 203 156 200 142 l 173 142 b 152 205 154 142 152 158 l 152 1183 b 173 1248 152 1231 155 1247 l 179 1248 b 203 1184 200 1248 203 1232 l 203 760 l 341 760 l 341 1192 b 178 1398 341 1264 341 1398 l 170 1398 b 11 1192 12 1398 11 1259 l 11 197 b 153 -8 11 133 11 2 l 137 -77 l 169 -76 b 192 -91 189 -76 192 -85 b 173 -108 192 -98 187 -108 b 135 -93 159 -108 148 -101 l 120 -137 l 121 -141 b 175 -157 124 -143 146 -157 z "},"Ċ":{"ha":352,"x_min":0,"x_max":0,"o":"m 170 -9 l 178 -9 b 341 197 341 -9 341 126 l 341 635 l 203 635 l 203 204 b 180 142 203 156 200 142 l 173 142 b 152 205 154 142 152 158 l 152 1183 b 173 1248 152 1231 155 1247 l 179 1248 b 203 1184 200 1248 203 1232 l 203 760 l 341 760 l 341 1192 b 178 1398 341 1264 341 1398 l 170 1398 b 11 1192 12 1398 11 1259 l 11 197 b 170 -9 11 131 11 -9 z m 125 1461 b 178 1408 125 1432 148 1408 b 230 1461 208 1408 230 1431 b 178 1514 230 1488 207 1514 b 125 1461 148 1514 125 1490 z "},"D":{"ha":362,"x_min":0,"x_max":0,"o":"m 18 0 l 187 0 b 351 206 350 0 351 135 l 351 1181 b 186 1388 351 1254 350 1388 l 19 1388 l 18 1387 z m 159 151 l 159 1238 l 182 1238 b 211 1168 207 1238 211 1220 l 211 217 b 183 151 211 166 207 151 z "},"Ð":{"ha":376,"x_min":0,"x_max":0,"o":"m 33 0 l 202 0 b 365 206 365 0 365 135 l 365 1181 b 201 1388 365 1254 365 1388 l 34 1388 l 33 1387 l 33 727 l 8 727 l 8 589 l 33 589 z m 173 151 l 173 589 l 198 589 l 198 727 l 173 727 l 173 1238 l 197 1238 b 225 1168 221 1238 225 1220 l 225 217 b 197 151 225 166 221 151 z "},"Ď":{"ha":362,"x_min":0,"x_max":0,"o":"m 18 0 l 187 0 b 351 206 350 0 351 135 l 351 1181 b 186 1388 351 1254 350 1388 l 19 1388 l 18 1387 z m 95 1440 l 181 1405 l 266 1440 l 246 1488 l 181 1461 l 115 1488 z m 159 151 l 159 1238 l 182 1238 b 211 1168 207 1238 211 1220 l 211 217 b 183 151 211 166 207 151 z "},"Đ":{"ha":365,"x_min":0,"x_max":0,"o":"m 22 0 l 191 0 b 355 206 354 0 355 135 l 355 1182 b 190 1389 355 1254 354 1389 l 22 1389 l 22 762 l 0 762 l 0 625 l 22 625 z m 162 151 l 162 625 l 190 625 l 190 762 l 162 762 l 162 1238 l 186 1238 b 214 1169 211 1238 214 1221 l 214 217 b 186 151 214 166 211 151 z "},"E":{"ha":304,"x_min":0,"x_max":0,"o":"m 18 0 l 286 0 l 286 151 l 159 151 l 159 621 l 286 621 l 286 767 l 159 767 l 159 1238 l 286 1238 l 286 1388 l 18 1388 z "},"É":{"ha":304,"x_min":0,"x_max":0,"o":"m 18 0 l 286 0 l 286 151 l 159 151 l 159 621 l 286 621 l 286 767 l 159 767 l 159 1238 l 286 1238 l 286 1388 l 18 1388 z m 75 1453 l 86 1403 l 228 1434 l 216 1484 z "},"Ě":{"ha":304,"x_min":0,"x_max":0,"o":"m 18 0 l 286 0 l 286 151 l 159 151 l 159 621 l 286 621 l 286 767 l 159 767 l 159 1238 l 286 1238 l 286 1388 l 18 1388 z m 62 1440 l 147 1405 l 232 1440 l 213 1488 l 147 1460 l 81 1488 z "},"Ê":{"ha":304,"x_min":0,"x_max":0,"o":"m 18 0 l 286 0 l 286 151 l 159 151 l 159 621 l 286 621 l 286 767 l 159 767 l 159 1238 l 286 1238 l 286 1388 l 18 1388 z m 64 1452 l 83 1405 l 150 1433 l 218 1405 l 237 1452 l 150 1488 z "},"Ë":{"ha":304,"x_min":0,"x_max":0,"o":"m 18 0 l 286 0 l 286 151 l 159 151 l 159 621 l 286 621 l 286 767 l 159 767 l 159 1238 l 286 1238 l 286 1388 l 18 1388 z m 61 1444 b 101 1404 61 1421 79 1404 b 141 1444 124 1404 141 1421 b 101 1483 141 1464 123 1483 b 61 1444 79 1483 61 1466 z m 160 1444 b 200 1404 160 1421 178 1404 b 240 1444 223 1404 240 1421 b 200 1483 240 1464 223 1483 b 160 1444 178 1483 160 1466 z "},"Ė":{"ha":304,"x_min":0,"x_max":0,"o":"m 18 0 l 286 0 l 286 151 l 159 151 l 159 621 l 286 621 l 286 767 l 159 767 l 159 1238 l 286 1238 l 286 1388 l 18 1388 z m 101 1458 b 154 1406 101 1430 124 1406 b 206 1458 183 1406 206 1429 b 154 1512 206 1486 183 1512 b 101 1458 124 1512 101 1488 z "},"È":{"ha":304,"x_min":0,"x_max":0,"o":"m 18 0 l 286 0 l 286 151 l 159 151 l 159 621 l 286 621 l 286 767 l 159 767 l 159 1238 l 286 1238 l 286 1388 l 18 1388 z m 73 1434 l 219 1403 l 230 1453 l 84 1485 z "},"Ē":{"ha":304,"x_min":0,"x_max":0,"o":"m 18 0 l 286 0 l 286 151 l 159 151 l 159 621 l 286 621 l 286 767 l 159 767 l 159 1238 l 286 1238 l 286 1388 l 18 1388 z m 74 1415 l 232 1415 l 232 1466 l 74 1466 z "},"Ę":{"ha":304,"x_min":0,"x_max":0,"o":"m 223 -117 b 272 -101 240 -117 251 -110 l 249 -51 b 223 -62 229 -60 226 -62 b 215 -54 216 -62 215 -61 b 251 0 215 -46 230 -30 l 286 0 l 286 151 l 159 151 l 159 621 l 286 621 l 286 767 l 159 767 l 159 1238 l 286 1238 l 286 1388 l 18 1388 l 18 0 l 183 0 b 160 -55 169 -20 160 -37 b 223 -117 161 -91 194 -117 z "},"F":{"ha":306,"x_min":0,"x_max":0,"o":"m 18 0 l 159 0 l 159 625 l 276 625 l 276 762 l 159 762 l 159 1238 l 287 1238 l 287 1388 l 18 1388 z "},"G":{"ha":371,"x_min":0,"x_max":0,"o":"m 153 -9 l 162 -9 b 249 48 204 -9 242 8 b 251 72 250 56 251 64 l 258 72 l 258 1 l 352 1 l 352 762 l 177 762 l 177 626 l 211 626 l 211 176 b 183 142 211 156 205 142 l 178 142 b 152 219 156 142 152 167 l 152 1180 b 179 1247 152 1231 156 1247 l 183 1247 b 211 1216 195 1247 211 1239 l 211 886 l 352 886 l 352 1223 b 188 1398 352 1304 327 1398 l 175 1398 b 11 1192 12 1398 11 1264 l 11 200 b 153 -9 11 67 61 -9 z "},"Ğ":{"ha":371,"x_min":0,"x_max":0,"o":"m 153 -9 l 162 -9 b 249 48 204 -9 242 8 b 251 72 250 56 251 64 l 258 72 l 258 1 l 352 1 l 352 762 l 177 762 l 177 626 l 211 626 l 211 176 b 183 142 211 156 205 142 l 178 142 b 152 219 156 142 152 167 l 152 1180 b 179 1247 152 1231 156 1247 l 183 1247 b 211 1216 195 1247 211 1239 l 211 886 l 352 886 l 352 1223 b 188 1398 352 1304 327 1398 l 175 1398 b 11 1192 12 1398 11 1264 l 11 200 b 153 -9 11 67 61 -9 z m 100 1492 b 180 1412 100 1452 135 1412 b 260 1492 224 1412 260 1452 l 209 1492 b 180 1463 209 1474 199 1463 b 151 1492 162 1463 151 1474 z "},"Ģ":{"ha":371,"x_min":0,"x_max":0,"o":"m 153 -9 l 162 -9 b 249 48 204 -9 242 8 b 251 72 250 56 251 64 l 258 72 l 258 1 l 352 1 l 352 762 l 177 762 l 177 626 l 211 626 l 211 176 b 183 142 211 156 205 142 l 178 142 b 152 219 156 142 152 167 l 152 1180 b 179 1247 152 1231 156 1247 l 183 1247 b 211 1216 195 1248 211 1239 l 211 886 l 352 886 l 352 1223 b 188 1398 352 1304 327 1398 l 175 1398 b 11 1192 12 1398 11 1264 l 11 200 b 153 -9 11 67 61 -9 z m 136 -79 b 174 -129 136 -103 152 -122 b 141 -151 164 -139 152 -144 l 170 -194 b 252 -84 195 -181 252 -146 b 195 -21 252 -45 227 -21 b 136 -79 164 -21 136 -47 z "},"Ġ":{"ha":371,"x_min":0,"x_max":0,"o":"m 153 -9 l 162 -9 b 249 48 204 -9 242 8 b 251 72 250 56 251 64 l 258 72 l 258 1 l 352 1 l 352 762 l 177 762 l 177 626 l 211 626 l 211 176 b 183 142 211 156 205 142 l 178 142 b 152 219 156 142 152 167 l 152 1180 b 179 1247 152 1231 156 1247 l 183 1247 b 211 1216 195 1247 211 1239 l 211 886 l 352 886 l 352 1223 b 188 1398 352 1304 327 1398 l 175 1398 b 11 1192 12 1398 11 1264 l 11 200 b 153 -9 11 67 61 -9 z m 131 1466 b 183 1413 131 1437 154 1413 b 236 1466 213 1413 236 1436 b 183 1519 236 1493 213 1519 b 131 1466 154 1519 131 1495 z "},"H":{"ha":380,"x_min":0,"x_max":0,"o":"m 18 0 l 164 0 l 164 626 l 216 626 l 216 0 l 362 0 l 362 1388 l 216 1388 l 216 762 l 164 762 l 164 1388 l 18 1388 z "},"Ħ":{"ha":400,"x_min":0,"x_max":0,"o":"m 29 0 l 174 0 l 174 626 l 226 626 l 226 0 l 372 0 l 372 1183 l 404 1183 l 404 1241 l 372 1241 l 372 1388 l 226 1388 l 226 1241 l 174 1241 l 174 1388 l 29 1388 l 29 1241 l -4 1241 l -4 1183 l 29 1183 z m 174 762 l 174 1183 l 226 1183 l 226 762 z "},"I":{"ha":182,"x_min":0,"x_max":0,"o":"m 18 0 l 164 0 l 164 1388 l 18 1388 z "},"Ĳ":{"ha":537,"x_min":0,"x_max":0,"o":"m 352 -10 l 365 -10 b 519 197 424 -10 519 7 l 519 1388 l 379 1388 l 379 216 b 357 141 379 182 377 141 l 352 141 b 330 216 335 141 330 174 l 330 632 l 189 632 l 189 197 b 352 -10 189 135 197 -10 z m 18 0 l 164 0 l 164 1388 l 18 1388 z "},"Í":{"ha":182,"x_min":0,"x_max":0,"o":"m 18 0 l 164 0 l 164 1388 l 18 1388 z m 12 1457 l 23 1406 l 164 1438 l 154 1488 z "},"Î":{"ha":182,"x_min":0,"x_max":0,"o":"m 18 0 l 164 0 l 164 1388 l 18 1388 z m 16 1452 l 33 1405 l 91 1433 l 149 1405 l 166 1452 l 91 1488 z "},"Ï":{"ha":182,"x_min":0,"x_max":0,"o":"m 18 0 l 164 0 l 164 1388 l 18 1388 z m 1 1444 b 42 1404 1 1422 19 1404 b 81 1444 64 1404 81 1421 b 42 1484 81 1465 64 1484 b 1 1444 19 1484 1 1466 z m 101 1444 b 141 1404 101 1422 118 1404 b 181 1444 163 1404 181 1421 b 141 1484 181 1465 163 1484 b 101 1444 118 1484 101 1466 z "},"İ":{"ha":183,"x_min":0,"x_max":0,"o":"m 18 0 l 164 0 l 164 1284 l 18 1284 z m 12 1385 b 91 1306 12 1341 48 1306 b 171 1385 136 1306 171 1341 b 91 1464 171 1427 136 1464 b 12 1385 48 1464 12 1428 z "},"Ì":{"ha":182,"x_min":0,"x_max":0,"o":"m 18 0 l 164 0 l 164 1388 l 18 1388 z m 15 1434 l 162 1403 l 172 1453 l 26 1485 z "},"Ī":{"ha":182,"x_min":0,"x_max":0,"o":"m 18 0 l 164 0 l 164 1388 l 18 1388 z m 18 1416 l 164 1416 l 164 1467 l 18 1467 z "},"Į":{"ha":182,"x_min":0,"x_max":0,"o":"m 104 -117 b 154 -100 121 -117 132 -110 l 130 -51 b 104 -62 110 -60 107 -62 b 96 -54 98 -62 96 -61 b 133 0 96 -46 111 -30 l 164 0 l 164 1388 l 18 1388 l 18 0 l 64 0 b 42 -54 50 -20 42 -37 b 104 -117 42 -91 75 -117 z "},"J":{"ha":355,"x_min":0,"x_max":0,"o":"m 169 -10 l 183 -10 b 337 197 241 -10 337 7 l 337 1388 l 196 1388 l 196 216 b 175 141 196 182 195 141 l 170 141 b 148 216 153 141 148 174 l 148 632 l 7 632 l 7 197 b 169 -10 7 135 15 -10 z "},"K":{"ha":383,"x_min":0,"x_max":0,"o":"m 18 0 l 159 0 l 159 497 b 156 563 159 517 156 548 l 162 564 b 169 506 162 549 167 523 l 225 0 l 383 0 l 280 700 l 280 700 l 377 1388 l 222 1388 l 167 886 l 162 833 l 156 833 b 159 903 157 849 159 886 l 159 1388 l 18 1388 z "},"Ķ":{"ha":383,"x_min":0,"x_max":0,"o":"m 18 0 l 159 0 l 159 497 b 156 563 159 517 156 548 l 162 564 b 169 507 162 549 167 523 l 225 0 l 383 0 l 280 700 l 280 700 l 377 1388 l 222 1388 l 167 886 l 162 833 l 156 833 b 159 903 157 849 159 886 l 159 1388 l 18 1388 z m 123 -79 b 161 -129 123 -103 139 -122 b 128 -151 151 -139 139 -144 l 156 -194 b 239 -84 182 -181 239 -146 b 182 -21 239 -45 213 -21 b 123 -79 151 -21 123 -47 z "},"L":{"ha":302,"x_min":0,"x_max":0,"o":"m 18 0 l 284 0 l 284 151 l 167 151 l 167 1388 l 18 1388 z "},"Ĺ":{"ha":302,"x_min":0,"x_max":0,"o":"m 18 0 l 284 0 l 284 151 l 167 151 l 167 1388 l 18 1388 z m 14 1457 l 25 1407 l 167 1439 l 156 1488 z "},"Ľ":{"ha":302,"x_min":0,"x_max":0,"o":"m 18 0 l 284 0 l 284 151 l 167 151 l 167 1388 l 18 1388 z m 205 1357 b 252 1294 205 1327 225 1303 b 212 1268 239 1283 224 1276 l 246 1215 b 348 1350 278 1232 348 1274 b 278 1427 348 1397 317 1427 b 205 1357 239 1427 205 1395 z "},"Ļ":{"ha":302,"x_min":0,"x_max":0,"o":"m 18 0 l 284 0 l 284 151 l 167 151 l 167 1388 l 18 1388 z m 84 -79 b 122 -129 84 -103 100 -122 b 89 -151 112 -139 100 -144 l 118 -194 b 200 -84 143 -181 200 -146 b 143 -21 200 -45 175 -21 b 84 -79 112 -21 84 -47 z "},"Ł":{"ha":320,"x_min":0,"x_max":0,"o":"m 37 0 l 302 0 l 302 151 l 185 151 l 185 944 l 236 967 l 212 1020 l 185 1008 l 185 1388 l 37 1388 l 37 940 l -15 917 l 10 864 l 37 876 z "},"M":{"ha":472,"x_min":0,"x_max":0,"o":"m 18 0 l 151 0 l 143 612 b 140 770 143 633 140 749 l 145 770 b 154 651 146 760 152 665 l 187 184 l 285 184 l 320 641 l 329 770 l 335 770 b 330 616 334 750 330 641 l 321 0 l 454 0 l 454 1388 l 273 1388 l 247 933 b 238 702 246 909 238 720 l 232 702 b 225 933 232 720 227 909 l 199 1388 l 18 1388 z "},"N":{"ha":382,"x_min":0,"x_max":0,"o":"m 18 0 l 151 0 l 134 637 b 126 806 134 654 129 753 l 133 807 b 148 651 137 754 146 668 l 208 0 l 363 0 l 363 1388 l 230 1388 l 248 760 l 254 583 l 247 582 b 231 760 243 640 232 744 l 173 1388 l 18 1388 z "},"Ń":{"ha":382,"x_min":0,"x_max":0,"o":"m 18 0 l 151 0 l 134 637 b 126 806 134 654 129 753 l 133 807 b 148 651 137 754 146 668 l 208 0 l 363 0 l 363 1388 l 230 1388 l 248 760 l 254 583 l 247 582 b 231 760 243 640 232 744 l 173 1388 l 18 1388 z m 118 1457 l 129 1407 l 271 1439 l 260 1488 z "},"Ň":{"ha":382,"x_min":0,"x_max":0,"o":"m 18 0 l 151 0 l 134 637 b 126 806 134 654 129 753 l 133 807 b 148 651 137 754 146 668 l 208 0 l 363 0 l 363 1388 l 230 1388 l 248 760 l 254 583 l 247 582 b 231 760 243 640 232 744 l 173 1388 l 18 1388 z m 108 1440 l 194 1405 l 279 1440 l 259 1488 l 194 1461 l 128 1488 z "},"Ņ":{"ha":382,"x_min":0,"x_max":0,"o":"m 18 0 l 151 0 l 134 637 b 126 806 134 654 129 753 l 133 807 b 148 651 137 754 146 668 l 208 0 l 363 0 l 363 1388 l 230 1388 l 248 760 l 254 583 l 247 582 b 231 760 243 640 232 744 l 173 1388 l 18 1388 z m 138 -82 b 176 -132 138 -106 154 -125 b 143 -154 166 -142 154 -147 l 172 -197 b 254 -87 197 -183 254 -149 b 197 -24 254 -48 229 -24 b 138 -82 166 -24 138 -50 z "},"Ñ":{"ha":382,"x_min":0,"x_max":0,"o":"m 18 0 l 151 0 l 134 637 b 126 806 134 654 129 753 l 133 807 b 148 651 137 754 146 668 l 208 0 l 363 0 l 363 1388 l 230 1388 l 248 760 l 254 583 l 247 582 b 231 760 243 640 232 744 l 173 1388 l 18 1388 z m 86 1447 b 156 1414 99 1431 123 1414 b 221 1437 188 1414 206 1437 b 253 1423 237 1437 246 1431 l 291 1458 b 221 1488 278 1472 253 1488 b 156 1466 189 1488 172 1466 b 125 1479 140 1466 132 1471 z "},"O":{"ha":357,"x_min":0,"x_max":0,"o":"m 175 -9 l 183 -9 b 346 197 346 -9 346 126 l 346 1192 b 183 1399 346 1264 346 1398 l 175 1399 b 11 1192 12 1398 11 1264 l 11 197 b 175 -9 11 126 11 -9 z m 151 208 l 151 1181 b 178 1248 151 1231 154 1247 l 180 1248 b 207 1181 203 1247 207 1232 l 207 208 b 180 142 207 158 202 143 l 178 142 b 151 208 154 142 151 157 z "},"Ó":{"ha":357,"x_min":0,"x_max":0,"o":"m 175 -9 l 183 -9 b 346 197 346 -9 346 126 l 346 1192 b 183 1399 346 1264 346 1398 l 175 1399 b 11 1192 12 1398 11 1264 l 11 197 b 175 -9 11 126 11 -9 z m 99 1457 l 110 1407 l 251 1439 l 240 1488 z m 151 208 l 151 1181 b 178 1248 151 1231 154 1247 l 180 1248 b 207 1181 203 1247 207 1232 l 207 208 b 180 142 207 158 202 143 l 178 142 b 151 208 154 142 151 157 z "},"Ô":{"ha":357,"x_min":0,"x_max":0,"o":"m 175 -9 l 183 -9 b 346 197 346 -9 346 126 l 346 1192 b 183 1399 346 1264 346 1398 l 175 1399 b 11 1192 12 1398 11 1264 l 11 197 b 175 -9 11 126 11 -9 z m 93 1452 l 112 1405 l 180 1433 l 247 1405 l 266 1452 l 180 1488 z m 151 208 l 151 1181 b 178 1248 151 1231 154 1247 l 180 1248 b 207 1181 203 1247 207 1232 l 207 208 b 180 142 207 158 202 143 l 178 142 b 151 208 154 142 151 157 z "},"Ö":{"ha":357,"x_min":0,"x_max":0,"o":"m 175 -9 l 183 -9 b 346 197 346 -9 346 126 l 346 1192 b 183 1399 346 1264 346 1398 l 175 1399 b 11 1192 12 1398 11 1264 l 11 197 b 175 -9 11 126 11 -9 z m 90 1448 b 129 1408 90 1426 107 1408 b 170 1448 152 1408 170 1425 b 129 1488 170 1469 152 1488 b 90 1448 107 1488 90 1470 z m 151 208 l 151 1181 b 178 1248 151 1231 154 1247 l 180 1248 b 207 1181 203 1247 207 1232 l 207 208 b 180 142 207 158 202 143 l 178 142 b 151 208 154 142 151 157 z m 189 1448 b 230 1408 189 1426 207 1408 b 269 1448 251 1408 269 1425 b 230 1488 269 1469 251 1488 b 189 1448 207 1488 189 1470 z "},"Ò":{"ha":357,"x_min":0,"x_max":0,"o":"m 175 -9 l 183 -9 b 346 197 346 -9 346 126 l 346 1192 b 183 1399 346 1264 346 1398 l 175 1399 b 11 1192 12 1398 11 1264 l 11 197 b 175 -9 11 126 11 -9 z m 106 1434 l 252 1403 l 262 1453 l 117 1485 z m 151 208 l 151 1181 b 178 1248 151 1231 154 1247 l 180 1248 b 207 1181 203 1247 207 1232 l 207 208 b 180 142 207 158 202 143 l 178 142 b 151 208 154 142 151 157 z "},"Ő":{"ha":357,"x_min":0,"x_max":0,"o":"m 175 -9 l 183 -9 b 346 197 346 -9 346 126 l 346 1192 b 183 1399 346 1264 346 1398 l 175 1399 b 11 1192 12 1398 11 1264 l 11 197 b 175 -9 11 126 11 -9 z m 70 1458 l 118 1419 l 201 1520 l 154 1560 z m 151 208 l 151 1181 b 178 1248 151 1231 154 1247 l 180 1248 b 207 1181 203 1247 207 1232 l 207 208 b 180 142 207 158 202 143 l 178 142 b 151 208 154 142 151 157 z m 181 1452 l 230 1413 l 312 1515 l 265 1554 z "},"Ō":{"ha":357,"x_min":0,"x_max":0,"o":"m 175 -9 l 183 -9 b 346 197 346 -9 346 126 l 346 1192 b 183 1399 346 1264 346 1398 l 175 1399 b 11 1192 12 1398 11 1264 l 11 197 b 175 -9 11 126 11 -9 z m 99 1419 l 258 1419 l 258 1470 l 99 1470 z m 151 208 l 151 1181 b 178 1248 151 1231 154 1247 l 180 1248 b 207 1181 203 1247 207 1232 l 207 208 b 180 142 207 158 202 143 l 178 142 b 151 208 154 142 151 157 z "},"Ø":{"ha":357,"x_min":0,"x_max":0,"o":"m 175 -9 l 183 -9 b 346 197 346 -9 346 126 l 346 1223 l 378 1354 l 321 1368 l 315 1341 b 183 1399 292 1374 251 1398 l 175 1399 b 11 1192 12 1398 11 1264 l 11 197 b 17 113 11 174 11 143 l -4 24 l 53 10 l 57 31 b 175 -9 82 7 118 -9 z m 151 208 l 151 416 l 207 648 l 207 208 b 180 142 207 158 202 143 l 178 142 b 151 208 154 142 151 157 z m 151 664 l 151 1181 b 178 1248 151 1231 154 1247 l 180 1248 b 207 1181 203 1247 207 1232 l 207 896 z "},"Õ":{"ha":357,"x_min":0,"x_max":0,"o":"m 175 -9 l 183 -9 b 346 197 346 -9 346 126 l 346 1192 b 183 1399 346 1264 346 1398 l 175 1399 b 11 1192 12 1398 11 1264 l 11 197 b 175 -9 11 126 11 -9 z m 76 1450 b 146 1417 88 1434 113 1417 b 212 1440 178 1417 196 1440 b 243 1426 227 1440 235 1434 l 281 1461 b 212 1491 268 1475 243 1491 b 146 1469 180 1491 162 1469 b 115 1482 130 1469 122 1474 z m 151 208 l 151 1181 b 178 1248 151 1231 154 1247 l 180 1248 b 207 1181 203 1247 207 1232 l 207 208 b 180 142 207 158 202 143 l 178 142 b 151 208 154 142 151 157 z "},"Œ":{"ha":496,"x_min":0,"x_max":0,"o":"m 175 -9 l 183 -9 b 246 0 208 -9 229 -6 l 477 0 l 477 151 l 350 151 l 350 626 l 477 626 l 477 762 l 350 762 l 350 1238 l 477 1238 l 477 1388 l 249 1388 b 183 1398 232 1395 209 1398 l 175 1398 b 11 1192 12 1398 11 1264 l 11 197 b 175 -9 11 126 11 -9 z m 151 208 l 151 1181 b 178 1248 151 1231 154 1248 l 180 1248 b 207 1181 203 1248 207 1231 l 207 208 b 180 142 207 158 202 143 l 178 142 b 151 208 154 142 151 157 z "},"P":{"ha":376,"x_min":0,"x_max":0,"o":"m 18 0 l 159 0 l 159 583 l 192 583 b 358 757 299 583 358 645 l 358 1215 b 192 1389 358 1325 297 1389 l 18 1389 z m 159 725 l 159 1238 l 183 1238 b 216 1202 210 1238 216 1212 l 216 760 b 185 725 216 738 205 725 z "},"Þ":{"ha":376,"x_min":0,"x_max":0,"o":"m 18 0 l 159 0 l 159 311 l 192 311 b 358 469 299 311 358 368 l 358 916 b 192 1082 358 1018 299 1082 l 159 1082 l 159 1387 l 18 1387 z m 159 446 l 159 945 l 183 945 b 216 917 210 945 216 928 l 216 472 b 185 446 216 457 202 446 z "},"Q":{"ha":362,"x_min":0,"x_max":0,"o":"m 343 -132 l 343 -14 l 292 -4 b 243 -1 275 -1 255 -1 l 243 5 l 244 5 b 277 10 257 5 269 6 b 351 199 344 46 351 126 l 351 1191 b 187 1398 351 1263 350 1398 l 175 1398 b 11 1191 12 1398 11 1263 l 11 198 b 150 -9 11 70 55 -3 l 153 -10 l 153 -105 z m 152 200 l 152 1179 b 180 1247 152 1230 156 1247 l 182 1247 b 210 1180 206 1247 210 1230 l 210 200 b 182 134 210 149 205 134 l 180 134 b 152 200 156 133 152 149 z "},"R":{"ha":371,"x_min":0,"x_max":0,"o":"m 18 0 l 159 0 l 159 599 l 179 599 b 205 564 203 599 205 564 l 205 0 l 352 0 b 349 558 351 31 349 520 b 281 657 349 613 318 657 l 281 663 b 360 774 325 663 360 731 l 360 1229 b 187 1389 360 1360 266 1389 l 18 1389 z m 159 737 l 159 1238 l 185 1238 b 213 1211 212 1238 213 1218 l 213 762 b 186 737 213 755 211 737 z "},"Ŕ":{"ha":371,"x_min":0,"x_max":0,"o":"m 18 0 l 159 0 l 159 599 l 179 599 b 205 564 203 599 205 564 l 205 0 l 352 0 b 349 558 351 31 349 520 b 281 657 349 613 318 657 l 281 663 b 360 774 325 663 360 731 l 360 1229 b 187 1389 360 1360 266 1389 l 18 1389 z m 98 1457 l 109 1407 l 251 1438 l 240 1488 z m 159 737 l 159 1238 l 185 1238 b 213 1211 212 1238 213 1218 l 213 762 b 186 737 213 755 211 737 z "},"Ř":{"ha":371,"x_min":0,"x_max":0,"o":"m 18 0 l 159 0 l 159 599 l 179 599 b 205 564 203 599 205 564 l 205 0 l 352 0 b 349 558 351 31 349 520 b 281 657 349 613 318 657 l 281 663 b 360 774 325 663 360 731 l 360 1229 b 187 1389 360 1360 266 1389 l 18 1389 z m 91 1440 l 176 1405 l 261 1440 l 241 1488 l 176 1460 l 110 1488 z m 159 737 l 159 1238 l 185 1238 b 213 1211 212 1238 213 1218 l 213 762 b 186 737 213 755 211 737 z "},"Ŗ":{"ha":371,"x_min":0,"x_max":0,"o":"m 18 0 l 159 0 l 159 599 l 179 599 b 205 564 203 599 205 564 l 205 0 l 352 0 b 349 558 351 31 349 520 b 281 657 349 613 318 657 l 281 663 b 360 774 325 663 360 731 l 360 1229 b 187 1389 360 1360 266 1389 l 18 1389 z m 129 -79 b 167 -129 129 -103 145 -122 b 135 -151 157 -139 145 -144 l 163 -194 b 246 -84 189 -181 246 -146 b 189 -21 246 -45 220 -21 b 129 -79 157 -21 129 -47 z m 159 737 l 159 1238 l 185 1238 b 213 1211 212 1238 213 1218 l 213 762 b 186 737 213 755 211 737 z "},"S":{"ha":363,"x_min":0,"x_max":0,"o":"m 180 -9 l 182 -9 b 352 148 289 -9 352 45 l 352 558 b 219 759 352 663 276 732 b 163 835 180 773 163 809 l 163 1230 b 183 1248 163 1240 172 1248 l 185 1248 b 211 1215 205 1248 211 1230 l 211 819 l 351 819 l 351 1227 b 181 1399 351 1368 259 1399 l 178 1399 b 13 1247 75 1399 13 1354 l 13 836 b 140 638 13 732 75 663 b 202 556 190 618 202 580 l 202 161 b 180 143 202 150 194 143 l 178 143 b 152 178 168 143 152 154 l 152 575 l 11 575 l 11 178 b 180 -9 11 55 68 -9 z "},"Ś":{"ha":363,"x_min":0,"x_max":0,"o":"m 180 -9 l 182 -9 b 352 148 289 -9 352 45 l 352 558 b 219 759 352 663 276 732 b 163 835 180 773 163 809 l 163 1230 b 183 1248 163 1240 172 1248 l 185 1248 b 211 1215 205 1248 211 1230 l 211 819 l 351 819 l 351 1227 b 181 1399 351 1368 259 1399 l 178 1399 b 13 1247 75 1399 13 1354 l 13 836 b 140 638 13 732 75 663 b 202 556 190 618 202 580 l 202 161 b 180 143 202 150 194 143 l 178 143 b 152 178 168 143 152 154 l 152 575 l 11 575 l 11 178 b 180 -9 11 55 68 -9 z m 108 1460 l 119 1410 l 261 1442 l 250 1491 z "},"Š":{"ha":363,"x_min":0,"x_max":0,"o":"m 180 -9 l 182 -9 b 352 148 289 -9 352 45 l 352 558 b 219 759 352 663 276 732 b 163 835 180 773 163 809 l 163 1230 b 183 1248 163 1240 172 1248 l 185 1248 b 211 1215 205 1248 211 1230 l 211 819 l 351 819 l 351 1227 b 181 1399 351 1368 259 1399 l 178 1399 b 13 1247 75 1399 13 1354 l 13 836 b 140 638 13 732 75 663 b 202 556 190 618 202 580 l 202 161 b 180 143 202 150 194 143 l 178 143 b 152 178 168 143 152 154 l 152 575 l 11 575 l 11 178 b 180 -9 11 55 68 -9 z m 95 1443 l 181 1408 l 265 1443 l 246 1490 l 181 1463 l 115 1490 z "},"Ş":{"ha":363,"x_min":0,"x_max":0,"o":"m 186 -157 b 255 -89 224 -157 255 -127 b 211 -31 255 -59 237 -39 l 216 -7 b 352 148 303 4 352 57 l 352 558 b 219 759 352 663 276 732 b 163 835 180 773 163 809 l 163 1230 b 183 1248 163 1240 172 1248 l 185 1248 b 211 1215 205 1248 211 1230 l 211 819 l 351 819 l 351 1227 b 181 1399 351 1368 259 1399 l 178 1399 b 13 1247 75 1399 13 1354 l 13 836 b 140 638 13 732 75 663 b 202 556 190 618 202 580 l 202 161 b 180 143 202 150 194 143 l 178 143 b 152 178 168 143 152 154 l 152 575 l 11 575 l 11 178 b 164 -8 11 61 62 -2 l 148 -77 l 180 -76 b 202 -91 200 -76 202 -85 b 184 -108 202 -98 198 -108 b 146 -93 170 -108 159 -101 l 131 -137 l 132 -140 b 186 -157 135 -143 157 -157 z "},"Ș":{"ha":363,"x_min":0,"x_max":0,"o":"m 180 -9 l 182 -9 b 352 148 289 -9 352 45 l 352 558 b 219 759 352 663 276 732 b 163 835 180 773 163 809 l 163 1230 b 183 1248 163 1240 172 1248 l 185 1248 b 211 1215 205 1248 211 1230 l 211 819 l 351 819 l 351 1227 b 181 1399 351 1368 259 1399 l 178 1399 b 13 1247 75 1399 13 1354 l 13 836 b 140 638 13 732 75 663 b 202 556 190 618 202 580 l 202 161 b 180 143 202 150 194 143 l 178 143 b 152 178 168 143 152 154 l 152 575 l 11 575 l 11 178 b 180 -9 11 55 68 -9 z m 132 -79 b 170 -129 132 -103 148 -122 b 137 -151 160 -139 148 -144 l 166 -194 b 249 -84 192 -181 249 -146 b 192 -21 249 -45 223 -21 b 132 -79 160 -21 132 -47 z "},"ẞ":{"ha":379,"x_min":0,"x_max":0,"o":"m 180 131 l 180 -19 b 376 133 279 -19 376 10 l 376 584 b 330 677 375 621 356 657 b 289 692 320 683 301 692 l 289 697 b 314 705 298 697 306 700 b 359 803 342 723 359 770 l 359 1246 b 197 1393 359 1343 287 1393 l 183 1393 b 18 1246 85 1393 18 1343 l 18 0 l 156 0 l 156 1224 b 186 1247 156 1240 174 1247 l 187 1247 b 216 1221 205 1247 216 1237 l 216 773 b 181 746 216 756 197 746 l 181 652 b 229 613 211 652 229 637 l 229 168 b 180 131 229 144 211 131 z "},"Ə":{"ha":357,"x_min":0,"x_max":0,"o":"m 175 -9 l 183 -9 b 346 198 346 -9 346 126 l 346 1192 b 183 1398 346 1264 346 1398 l 175 1398 b 11 1208 23 1398 12 1281 l 11 803 l 151 803 b 151 1208 151 804 151 1207 b 178 1248 153 1240 159 1247 l 180 1248 b 207 1181 203 1248 207 1232 l 207 740 l 11 740 l 11 198 b 175 -9 11 126 12 -9 z m 151 209 l 151 604 l 207 604 l 207 209 b 181 142 207 159 203 142 l 178 142 b 151 209 154 142 151 159 z "},"T":{"ha":349,"x_min":0,"x_max":0,"o":"m 104 0 l 246 0 l 246 1238 l 335 1238 l 335 1388 l 15 1388 l 15 1238 l 104 1238 z "},"Ť":{"ha":349,"x_min":0,"x_max":0,"o":"m 104 0 l 246 0 l 246 1238 l 335 1238 l 335 1388 l 15 1388 l 15 1238 l 104 1238 z m 88 1440 l 174 1405 l 259 1440 l 240 1488 l 174 1461 l 108 1488 z "},"Ţ":{"ha":349,"x_min":0,"x_max":0,"o":"m 171 -157 b 240 -89 210 -157 240 -127 b 197 -31 240 -59 222 -39 l 203 0 l 246 0 l 246 1238 l 335 1238 l 335 1388 l 15 1388 l 15 1238 l 104 1238 l 104 0 l 151 0 l 134 -77 l 165 -76 b 188 -91 185 -76 188 -85 b 170 -108 188 -98 183 -108 b 132 -93 156 -108 145 -101 l 116 -137 l 118 -140 b 171 -157 121 -143 143 -157 z "},"Ț":{"ha":349,"x_min":0,"x_max":0,"o":"m 104 0 l 246 0 l 246 1238 l 335 1238 l 335 1388 l 15 1388 l 15 1238 l 104 1238 z m 116 -79 b 154 -129 116 -103 132 -122 b 121 -151 144 -139 132 -144 l 150 -194 b 232 -84 175 -181 232 -146 b 175 -21 232 -45 207 -21 b 116 -79 144 -21 116 -47 z "},"U":{"ha":368,"x_min":0,"x_max":0,"o":"m 178 -10 l 191 -10 b 350 197 349 -9 350 130 l 350 1388 l 209 1388 l 209 214 b 185 141 209 161 205 142 l 183 141 b 159 214 163 142 159 161 l 159 1388 l 18 1388 l 18 197 b 178 -10 18 130 18 -9 z "},"Ú":{"ha":368,"x_min":0,"x_max":0,"o":"m 178 -10 l 191 -10 b 350 197 349 -9 350 130 l 350 1388 l 209 1388 l 209 214 b 185 141 209 161 205 142 l 183 141 b 159 214 163 142 159 161 l 159 1388 l 18 1388 l 18 197 b 178 -10 18 130 18 -9 z m 104 1457 l 115 1407 l 257 1439 l 246 1488 z "},"Û":{"ha":368,"x_min":0,"x_max":0,"o":"m 178 -10 l 191 -10 b 350 197 349 -9 350 130 l 350 1388 l 209 1388 l 209 214 b 185 141 209 161 205 142 l 183 141 b 159 214 163 142 159 161 l 159 1388 l 18 1388 l 18 197 b 178 -10 18 130 18 -9 z m 97 1452 l 116 1405 l 184 1433 l 251 1405 l 270 1452 l 184 1488 z "},"Ü":{"ha":368,"x_min":0,"x_max":0,"o":"m 178 -10 l 191 -10 b 350 197 349 -9 350 130 l 350 1388 l 209 1388 l 209 214 b 185 141 209 161 205 142 l 183 141 b 159 214 163 142 159 161 l 159 1388 l 18 1388 l 18 197 b 178 -10 18 130 18 -9 z m 94 1444 b 135 1404 94 1422 113 1404 b 175 1444 157 1404 175 1421 b 135 1484 175 1465 156 1484 b 94 1444 113 1484 94 1466 z m 194 1444 b 234 1404 194 1422 212 1404 b 274 1444 257 1404 274 1421 b 234 1484 274 1465 257 1484 b 194 1444 212 1484 194 1466 z "},"Ù":{"ha":368,"x_min":0,"x_max":0,"o":"m 178 -10 l 191 -10 b 350 197 349 -9 350 130 l 350 1388 l 209 1388 l 209 214 b 185 141 209 161 205 142 l 183 141 b 159 214 163 142 159 161 l 159 1388 l 18 1388 l 18 197 b 178 -10 18 130 18 -9 z m 107 1434 l 254 1403 l 264 1453 l 118 1485 z "},"Ű":{"ha":368,"x_min":0,"x_max":0,"o":"m 178 -10 l 191 -10 b 350 197 349 -9 350 130 l 350 1388 l 209 1388 l 209 214 b 185 141 209 161 205 142 l 183 141 b 159 214 163 142 159 161 l 159 1388 l 18 1388 l 18 197 b 178 -10 18 130 18 -9 z m 82 1458 l 130 1419 l 213 1520 l 165 1560 z m 193 1452 l 241 1413 l 324 1515 l 276 1554 z "},"Ū":{"ha":368,"x_min":0,"x_max":0,"o":"m 178 -10 l 191 -10 b 350 197 349 -9 350 130 l 350 1388 l 209 1388 l 209 214 b 185 141 209 161 205 142 l 183 141 b 159 214 163 142 159 161 l 159 1388 l 18 1388 l 18 197 b 178 -10 18 130 18 -9 z m 105 1416 l 263 1416 l 263 1467 l 105 1467 z "},"Ų":{"ha":368,"x_min":0,"x_max":0,"o":"m 237 -117 b 286 -100 254 -117 265 -110 l 262 -51 b 237 -62 243 -60 240 -62 b 229 -54 230 -62 229 -61 b 270 7 229 -46 246 -27 b 350 197 350 46 350 144 l 350 1388 l 209 1388 l 209 214 b 185 141 209 161 205 142 l 183 141 b 159 214 163 142 159 161 l 159 1388 l 18 1388 l 18 197 b 178 -10 18 130 18 -9 l 191 -10 b 174 -54 181 -26 174 -39 b 237 -117 175 -91 208 -117 z "},"Ů":{"ha":368,"x_min":0,"x_max":0,"o":"m 178 -10 l 191 -10 b 350 197 349 -9 350 130 l 350 1388 l 209 1388 l 209 214 b 185 141 209 161 205 142 l 183 141 b 159 214 163 142 159 161 l 159 1388 l 18 1388 l 18 197 b 178 -10 18 130 18 -9 z m 109 1479 b 183 1404 109 1438 143 1404 b 258 1479 224 1404 258 1438 b 183 1553 258 1520 224 1553 b 109 1479 143 1553 109 1520 z m 164 1479 b 183 1499 164 1493 169 1499 b 203 1479 198 1499 203 1493 b 183 1459 203 1464 198 1459 b 164 1479 169 1459 164 1464 z "},"V":{"ha":362,"x_min":0,"x_max":0,"o":"m 96 0 l 265 0 l 365 1388 l 217 1388 l 187 626 b 184 510 186 612 184 531 l 178 510 b 175 626 178 531 176 610 l 145 1388 l -4 1388 z "},"W":{"ha":529,"x_min":0,"x_max":0,"o":"m 61 0 l 231 0 l 257 589 b 261 705 259 607 261 686 l 267 705 b 272 589 267 686 271 606 l 298 0 l 468 0 l 533 1388 l 390 1388 b 370 706 379 1274 370 738 b 366 502 366 482 366 504 l 360 502 b 356 734 360 516 357 720 l 327 1388 l 202 1388 l 173 734 b 167 502 173 718 167 523 l 162 502 l 159 706 l 140 1388 l -4 1388 z "},"Ẃ":{"ha":529,"x_min":0,"x_max":0,"o":"m 61 0 l 231 0 l 257 589 b 261 705 259 607 261 686 l 267 705 b 272 589 267 686 271 606 l 298 0 l 468 0 l 533 1388 l 390 1388 b 370 706 379 1274 370 738 b 366 502 366 482 366 504 l 360 502 b 356 734 360 516 357 720 l 327 1388 l 202 1388 l 173 734 b 167 502 173 718 167 523 l 162 502 l 159 706 l 140 1388 l -4 1388 z m 182 1457 l 193 1407 l 335 1439 l 324 1488 z "},"Ŵ":{"ha":529,"x_min":0,"x_max":0,"o":"m 61 0 l 231 0 l 257 589 b 261 705 259 607 261 686 l 267 705 b 272 589 267 686 271 606 l 298 0 l 468 0 l 533 1388 l 390 1388 b 370 706 379 1274 370 738 b 366 502 366 482 366 504 l 360 502 b 356 734 360 516 357 720 l 327 1388 l 202 1388 l 173 734 b 167 502 173 718 167 523 l 162 502 l 159 706 l 140 1388 l -4 1388 z m 178 1452 l 197 1405 l 264 1433 l 332 1405 l 351 1452 l 264 1488 z "},"Ẅ":{"ha":529,"x_min":0,"x_max":0,"o":"m 61 0 l 231 0 l 257 589 b 261 705 259 607 261 686 l 267 705 b 272 589 267 686 271 606 l 298 0 l 468 0 l 533 1388 l 390 1388 b 370 706 379 1274 370 738 b 366 502 366 482 366 504 l 360 502 b 356 734 360 516 357 720 l 327 1388 l 202 1388 l 173 734 b 167 502 173 718 167 523 l 162 502 l 159 706 l 140 1388 l -4 1388 z m 175 1444 b 215 1404 175 1422 193 1404 b 255 1444 237 1404 255 1421 b 215 1484 255 1465 237 1484 b 175 1444 193 1484 175 1466 z m 274 1444 b 314 1404 274 1422 292 1404 b 355 1444 337 1404 355 1421 b 314 1484 355 1465 336 1484 b 274 1444 292 1484 274 1466 z "},"Ẁ":{"ha":529,"x_min":0,"x_max":0,"o":"m 61 0 l 231 0 l 257 589 b 261 705 259 607 261 686 l 267 705 b 272 589 267 686 271 606 l 298 0 l 468 0 l 533 1388 l 390 1388 b 370 706 379 1274 370 738 b 366 502 366 482 366 504 l 360 502 b 356 734 360 516 357 720 l 327 1388 l 202 1388 l 173 734 b 167 502 173 718 167 523 l 162 502 l 159 706 l 140 1388 l -4 1388 z m 192 1434 l 338 1403 l 349 1453 l 203 1485 z "},"X":{"ha":390,"x_min":0,"x_max":0,"o":"m -4 0 l 153 0 l 189 465 b 192 517 189 475 192 507 l 197 517 b 202 465 197 507 201 474 l 238 0 l 393 0 l 316 692 l 393 1388 l 237 1388 l 202 923 b 197 868 202 915 197 876 l 192 868 b 188 923 192 876 189 914 l 154 1388 l -3 1388 l 73 692 z "},"Y":{"ha":378,"x_min":0,"x_max":0,"o":"m 118 0 l 260 0 l 260 550 l 382 1389 l 235 1389 l 194 949 b 190 882 193 936 190 895 l 184 882 b 182 949 184 895 183 936 l 145 1389 l -4 1389 l 118 550 z "},"Ý":{"ha":378,"x_min":0,"x_max":0,"o":"m 118 0 l 260 0 l 260 550 l 382 1389 l 235 1389 l 194 949 b 190 882 193 936 190 895 l 184 882 b 182 949 184 895 183 936 l 145 1389 l -4 1389 l 118 550 z m 111 1457 l 122 1407 l 264 1439 l 253 1488 z "},"Ŷ":{"ha":378,"x_min":0,"x_max":0,"o":"m 118 0 l 260 0 l 260 550 l 382 1389 l 235 1389 l 194 949 b 190 882 193 936 190 895 l 184 882 b 182 949 184 895 183 936 l 145 1389 l -4 1389 l 118 550 z m 102 1452 l 122 1405 l 189 1433 l 257 1405 l 276 1452 l 189 1488 z "},"Ÿ":{"ha":378,"x_min":0,"x_max":0,"o":"m 118 0 l 260 0 l 260 550 l 382 1389 l 235 1389 l 194 949 b 190 882 193 936 190 895 l 184 882 b 182 949 184 895 183 936 l 145 1389 l -4 1389 l 118 550 z m 99 1444 b 139 1404 99 1422 117 1404 b 179 1444 162 1404 179 1421 b 139 1484 179 1465 162 1484 b 99 1444 117 1484 99 1466 z m 199 1444 b 239 1404 199 1422 216 1404 b 279 1444 261 1404 279 1421 b 239 1484 279 1465 261 1484 b 199 1444 216 1484 199 1466 z "},"Ỳ":{"ha":378,"x_min":0,"x_max":0,"o":"m 118 0 l 260 0 l 260 550 l 382 1389 l 235 1389 l 194 949 b 190 882 193 936 190 895 l 184 882 b 182 949 184 895 183 936 l 145 1389 l -4 1389 l 118 550 z m 117 1434 l 263 1403 l 273 1453 l 128 1485 z "},"Z":{"ha":342,"x_min":0,"x_max":0,"o":"m 18 0 l 324 0 l 324 151 l 178 151 b 162 149 170 151 167 151 l 160 151 b 164 162 162 154 163 157 l 324 1278 l 324 1388 l 18 1388 l 18 1238 l 159 1238 b 175 1238 167 1238 173 1238 l 176 1237 b 174 1228 175 1235 175 1232 l 18 121 z "},"Ź":{"ha":342,"x_min":0,"x_max":0,"o":"m 18 0 l 324 0 l 324 151 l 178 151 b 162 149 170 151 167 151 l 160 151 b 164 162 162 154 163 157 l 324 1278 l 324 1388 l 18 1388 l 18 1238 l 159 1238 b 175 1238 167 1238 173 1238 l 176 1237 b 174 1228 175 1235 175 1232 l 18 121 z m 99 1457 l 110 1407 l 251 1438 l 240 1488 z "},"Ž":{"ha":342,"x_min":0,"x_max":0,"o":"m 18 0 l 324 0 l 324 151 l 178 151 b 162 149 170 151 167 151 l 160 151 b 164 162 162 154 163 157 l 324 1278 l 324 1388 l 18 1388 l 18 1238 l 159 1238 b 175 1238 167 1238 173 1238 l 176 1237 b 174 1228 175 1235 175 1232 l 18 121 z m 85 1440 l 170 1405 l 256 1440 l 236 1488 l 170 1460 l 105 1488 z "},"Ż":{"ha":342,"x_min":0,"x_max":0,"o":"m 18 0 l 324 0 l 324 151 l 178 151 b 162 149 170 151 167 151 l 160 151 b 164 162 162 154 163 157 l 324 1278 l 324 1388 l 18 1388 l 18 1238 l 159 1238 b 175 1238 167 1238 173 1238 l 176 1237 b 174 1228 175 1235 175 1232 l 18 121 z m 118 1458 b 170 1406 118 1430 141 1406 b 223 1458 200 1406 223 1429 b 170 1512 223 1486 200 1512 b 118 1458 141 1512 118 1488 z "},"a":{"ha":395,"x_min":0,"x_max":0,"o":"m -4 0 l 138 0 l 164 314 l 233 314 l 256 0 l 399 0 l 295 1388 l 101 1388 z m 167 465 l 167 469 l 168 479 l 192 998 b 194 1094 193 1013 194 1081 l 200 1094 b 202 998 200 1083 202 1013 l 229 479 l 229 469 l 230 465 l 229 464 l 226 465 l 171 465 l 167 464 z "},"á":{"ha":395,"x_min":0,"x_max":0,"o":"m -4 0 l 138 0 l 164 314 l 233 314 l 256 0 l 399 0 l 295 1388 l 101 1388 z m 118 1453 l 129 1403 l 270 1434 l 260 1485 z m 167 465 l 167 469 l 168 479 l 192 998 b 194 1094 193 1013 194 1081 l 200 1094 b 202 998 200 1083 202 1013 l 229 479 l 229 469 l 230 465 l 229 464 l 226 465 l 171 465 l 167 464 z "},"ă":{"ha":395,"x_min":0,"x_max":0,"o":"m -4 0 l 138 0 l 164 314 l 233 314 l 256 0 l 399 0 l 295 1388 l 101 1388 z m 117 1485 b 197 1405 117 1444 152 1405 b 277 1485 242 1405 277 1444 l 226 1485 b 197 1456 226 1467 216 1456 b 168 1485 178 1456 168 1467 z m 167 465 l 167 469 l 168 479 l 192 998 b 194 1094 193 1013 194 1081 l 200 1094 b 202 998 200 1083 202 1013 l 229 479 l 229 469 l 230 465 l 229 464 l 226 465 l 171 465 l 167 464 z "},"â":{"ha":395,"x_min":0,"x_max":0,"o":"m -4 0 l 138 0 l 164 314 l 233 314 l 256 0 l 399 0 l 295 1388 l 101 1388 z m 110 1452 l 129 1405 l 197 1433 l 265 1405 l 284 1452 l 197 1488 z m 167 465 l 167 469 l 168 479 l 192 998 b 194 1094 193 1013 194 1081 l 200 1094 b 202 998 200 1083 202 1013 l 229 479 l 229 469 l 230 465 l 229 464 l 226 465 l 171 465 l 167 464 z "},"ä":{"ha":395,"x_min":0,"x_max":0,"o":"m -4 0 l 138 0 l 164 314 l 233 314 l 256 0 l 399 0 l 295 1388 l 101 1388 z m 108 1444 b 148 1404 108 1422 126 1404 b 188 1444 170 1404 188 1421 b 148 1484 188 1465 170 1484 b 108 1444 126 1484 108 1466 z m 167 465 l 167 469 l 168 479 l 192 998 b 194 1094 193 1013 194 1081 l 200 1094 b 202 998 200 1083 202 1013 l 228 479 l 229 469 l 230 465 l 229 464 l 226 465 l 170 465 l 167 464 z m 208 1444 b 248 1404 208 1422 225 1404 b 287 1444 270 1404 287 1421 b 248 1484 287 1465 270 1484 b 208 1444 225 1484 208 1466 z "},"à":{"ha":395,"x_min":0,"x_max":0,"o":"m -4 0 l 138 0 l 164 314 l 233 314 l 256 0 l 399 0 l 295 1388 l 101 1388 z m 119 1434 l 265 1403 l 276 1453 l 130 1485 z m 167 465 l 167 469 l 168 479 l 192 998 b 194 1094 193 1013 194 1081 l 200 1094 b 202 998 200 1083 202 1013 l 229 479 l 229 469 l 230 465 l 229 464 l 226 465 l 170 465 l 167 464 z "},"ā":{"ha":395,"x_min":0,"x_max":0,"o":"m -4 0 l 138 0 l 164 314 l 233 314 l 256 0 l 399 0 l 295 1388 l 101 1388 z m 119 1416 l 277 1416 l 277 1467 l 119 1467 z m 167 465 l 167 469 l 168 479 l 192 998 b 194 1094 193 1013 194 1081 l 200 1094 b 202 998 200 1083 202 1013 l 229 479 l 229 469 l 230 465 l 229 464 l 226 465 l 170 465 l 167 464 z "},"ą":{"ha":395,"x_min":0,"x_max":0,"o":"m 345 -117 b 395 -100 363 -117 374 -110 l 371 -51 b 346 -62 352 -60 349 -62 b 338 -54 339 -62 338 -61 b 374 0 338 -46 352 -30 l 399 0 l 295 1388 l 101 1388 l -4 0 l 138 0 l 164 314 l 233 314 l 257 0 l 306 0 b 283 -54 292 -20 283 -37 b 345 -117 284 -91 317 -117 z m 167 465 l 167 469 l 168 479 l 192 998 b 194 1094 193 1013 194 1081 l 200 1094 b 202 998 200 1083 202 1013 l 229 479 l 229 469 l 230 465 l 229 464 l 226 465 l 171 465 l 167 464 z "},"å":{"ha":395,"x_min":0,"x_max":0,"o":"m -4 0 l 138 0 l 164 314 l 233 314 l 256 0 l 399 0 l 295 1388 l 101 1388 z m 123 1481 b 198 1406 123 1440 156 1406 b 273 1481 239 1406 273 1440 b 198 1556 273 1522 239 1556 b 123 1481 156 1556 123 1522 z m 167 465 l 167 469 l 168 479 l 192 998 b 194 1094 193 1013 194 1081 l 200 1094 b 202 998 200 1083 202 1013 l 229 479 l 229 469 l 230 465 l 229 464 l 226 465 l 170 465 l 167 464 z m 178 1481 b 198 1501 178 1496 183 1501 b 218 1481 213 1501 218 1496 b 198 1461 218 1466 213 1461 b 178 1481 183 1461 178 1466 z "},"ã":{"ha":395,"x_min":0,"x_max":0,"o":"m -4 0 l 138 0 l 164 314 l 233 314 l 256 0 l 399 0 l 295 1388 l 101 1388 z m 94 1447 b 164 1414 107 1431 132 1414 b 230 1437 197 1414 214 1437 b 262 1423 245 1437 254 1431 l 299 1458 b 230 1488 286 1472 261 1488 b 164 1466 198 1488 180 1466 b 134 1479 148 1466 140 1471 z m 167 465 l 167 469 l 168 479 l 192 998 b 194 1094 193 1013 194 1081 l 200 1094 b 202 998 200 1083 202 1013 l 228 479 l 229 469 l 230 465 l 229 464 l 226 464 b 218 465 222 465 220 465 l 178 465 b 170 464 175 465 174 465 l 167 464 z "},"æ":{"ha":538,"x_min":0,"x_max":0,"o":"m -4 0 l 138 0 l 169 322 l 253 322 l 253 0 l 520 0 l 520 151 l 392 151 l 392 626 l 520 626 l 520 762 l 392 762 l 392 1238 l 520 1238 l 520 1388 l 191 1388 z m 177 466 b 180 482 179 475 179 477 l 239 952 b 246 1046 241 969 246 1012 l 253 1046 l 253 465 l 202 465 b 179 463 189 465 185 465 z "},"b":{"ha":356,"x_min":0,"x_max":0,"o":"m 18 0 l 175 0 b 352 148 283 0 352 50 l 352 589 b 279 698 352 642 330 698 l 279 704 b 348 798 313 704 348 749 l 348 1240 b 175 1389 348 1338 287 1389 l 18 1389 z m 156 149 l 156 638 l 174 638 b 204 613 202 638 204 617 l 204 171 b 175 149 205 164 197 149 z m 156 754 l 156 1241 l 175 1241 b 204 1218 195 1241 204 1229 l 204 775 b 175 754 204 766 192 754 z "},"c":{"ha":352,"x_min":0,"x_max":0,"o":"m 170 -9 l 178 -9 b 341 197 341 -9 341 126 l 341 635 l 203 635 l 203 204 b 180 142 203 156 200 142 l 173 142 b 152 205 154 142 152 158 l 152 1183 b 173 1248 152 1231 155 1247 l 179 1248 b 203 1184 200 1248 203 1232 l 203 760 l 341 760 l 341 1192 b 178 1398 341 1264 341 1398 l 170 1398 b 11 1192 12 1398 11 1259 l 11 197 b 170 -9 11 131 11 -9 z "},"ć":{"ha":352,"x_min":0,"x_max":0,"o":"m 170 -9 l 178 -9 b 341 197 341 -9 341 126 l 341 635 l 203 635 l 203 204 b 180 142 203 156 200 142 l 173 142 b 152 205 154 142 152 158 l 152 1183 b 173 1248 152 1231 155 1247 l 179 1248 b 203 1184 200 1248 203 1232 l 203 760 l 341 760 l 341 1192 b 178 1398 341 1264 341 1398 l 170 1398 b 11 1192 12 1398 11 1259 l 11 197 b 170 -9 11 131 11 -9 z m 100 1457 l 111 1407 l 253 1439 l 242 1488 z "},"č":{"ha":352,"x_min":0,"x_max":0,"o":"m 170 -9 l 178 -9 b 341 197 341 -9 341 126 l 341 635 l 203 635 l 203 204 b 180 142 203 156 200 142 l 173 142 b 152 205 154 142 152 158 l 152 1183 b 173 1248 152 1231 155 1247 l 179 1248 b 203 1184 200 1248 203 1232 l 203 760 l 341 760 l 341 1192 b 178 1398 341 1264 341 1398 l 170 1398 b 11 1192 12 1398 11 1259 l 11 197 b 170 -9 11 131 11 -9 z m 88 1440 l 174 1405 l 259 1440 l 239 1488 l 174 1461 l 108 1488 z "},"ç":{"ha":352,"x_min":0,"x_max":0,"o":"m 175 -157 b 244 -89 213 -157 244 -127 b 200 -31 244 -59 226 -39 l 205 -7 b 341 197 341 7 341 130 l 341 635 l 203 635 l 203 204 b 180 142 203 156 200 142 l 173 142 b 152 205 154 142 152 158 l 152 1183 b 173 1248 152 1231 155 1247 l 179 1248 b 203 1184 200 1248 203 1232 l 203 760 l 341 760 l 341 1192 b 178 1398 341 1264 341 1398 l 170 1398 b 11 1192 12 1398 11 1259 l 11 197 b 153 -8 11 133 11 2 l 137 -77 l 169 -76 b 192 -91 189 -76 192 -85 b 173 -108 192 -98 187 -108 b 135 -93 159 -108 148 -101 l 120 -137 l 121 -141 b 175 -157 124 -143 146 -157 z "},"ċ":{"ha":352,"x_min":0,"x_max":0,"o":"m 170 -9 l 178 -9 b 341 197 341 -9 341 126 l 341 635 l 203 635 l 203 204 b 180 142 203 156 200 142 l 173 142 b 152 205 154 142 152 158 l 152 1183 b 173 1248 152 1231 155 1247 l 179 1248 b 203 1184 200 1248 203 1232 l 203 760 l 341 760 l 341 1192 b 178 1398 341 1264 341 1398 l 170 1398 b 11 1192 12 1398 11 1259 l 11 197 b 170 -9 11 131 11 -9 z m 125 1461 b 178 1408 125 1432 148 1408 b 230 1461 208 1408 230 1431 b 178 1514 230 1488 207 1514 b 125 1461 148 1514 125 1490 z "},"d":{"ha":362,"x_min":0,"x_max":0,"o":"m 18 0 l 187 0 b 351 206 350 0 351 135 l 351 1181 b 186 1388 351 1254 350 1388 l 19 1388 l 18 1387 z m 159 151 l 159 1238 l 182 1238 b 211 1168 207 1238 211 1220 l 211 217 b 183 151 211 166 207 151 z "},"ð":{"ha":376,"x_min":0,"x_max":0,"o":"m 33 0 l 202 0 b 365 206 365 0 365 135 l 365 1181 b 201 1388 365 1254 365 1388 l 34 1388 l 33 1387 l 33 727 l 8 727 l 8 589 l 33 589 z m 173 151 l 173 589 l 198 589 l 198 727 l 173 727 l 173 1238 l 197 1238 b 225 1168 221 1238 225 1220 l 225 217 b 197 151 225 166 221 151 z "},"ď":{"ha":362,"x_min":0,"x_max":0,"o":"m 18 0 l 187 0 b 351 206 350 0 351 135 l 351 1181 b 186 1388 351 1254 350 1388 l 19 1388 l 18 1387 z m 95 1440 l 181 1405 l 266 1440 l 246 1488 l 181 1461 l 115 1488 z m 159 151 l 159 1238 l 182 1238 b 211 1168 207 1238 211 1220 l 211 217 b 183 151 211 166 207 151 z "},"đ":{"ha":365,"x_min":0,"x_max":0,"o":"m 22 0 l 191 0 b 355 206 354 0 355 135 l 355 1182 b 190 1389 355 1254 354 1389 l 22 1389 l 22 762 l 0 762 l 0 625 l 22 625 z m 162 151 l 162 625 l 190 625 l 190 762 l 162 762 l 162 1238 l 186 1238 b 214 1169 211 1238 214 1221 l 214 217 b 186 151 214 166 211 151 z "},"e":{"ha":304,"x_min":0,"x_max":0,"o":"m 18 0 l 286 0 l 286 151 l 159 151 l 159 621 l 286 621 l 286 767 l 159 767 l 159 1238 l 286 1238 l 286 1388 l 18 1388 z "},"é":{"ha":304,"x_min":0,"x_max":0,"o":"m 18 0 l 286 0 l 286 151 l 159 151 l 159 621 l 286 621 l 286 767 l 159 767 l 159 1238 l 286 1238 l 286 1388 l 18 1388 z m 75 1453 l 86 1403 l 228 1434 l 216 1484 z "},"ě":{"ha":304,"x_min":0,"x_max":0,"o":"m 18 0 l 286 0 l 286 151 l 159 151 l 159 621 l 286 621 l 286 767 l 159 767 l 159 1238 l 286 1238 l 286 1388 l 18 1388 z m 62 1440 l 147 1405 l 232 1440 l 213 1488 l 147 1460 l 81 1488 z "},"ê":{"ha":304,"x_min":0,"x_max":0,"o":"m 18 0 l 286 0 l 286 151 l 159 151 l 159 621 l 286 621 l 286 767 l 159 767 l 159 1238 l 286 1238 l 286 1388 l 18 1388 z m 64 1452 l 83 1405 l 150 1433 l 218 1405 l 237 1452 l 150 1488 z "},"ë":{"ha":304,"x_min":0,"x_max":0,"o":"m 18 0 l 286 0 l 286 151 l 159 151 l 159 621 l 286 621 l 286 767 l 159 767 l 159 1238 l 286 1238 l 286 1388 l 18 1388 z m 61 1444 b 101 1404 61 1421 79 1404 b 141 1444 124 1404 141 1421 b 101 1483 141 1464 123 1483 b 61 1444 79 1483 61 1466 z m 160 1444 b 200 1404 160 1421 178 1404 b 240 1444 223 1404 240 1421 b 200 1483 240 1464 223 1483 b 160 1444 178 1483 160 1466 z "},"ė":{"ha":304,"x_min":0,"x_max":0,"o":"m 18 0 l 286 0 l 286 151 l 159 151 l 159 621 l 286 621 l 286 767 l 159 767 l 159 1238 l 286 1238 l 286 1388 l 18 1388 z m 101 1458 b 154 1406 101 1430 124 1406 b 206 1458 183 1406 206 1429 b 154 1512 206 1486 183 1512 b 101 1458 124 1512 101 1488 z "},"è":{"ha":304,"x_min":0,"x_max":0,"o":"m 18 0 l 286 0 l 286 151 l 159 151 l 159 621 l 286 621 l 286 767 l 159 767 l 159 1238 l 286 1238 l 286 1388 l 18 1388 z m 73 1434 l 219 1403 l 230 1453 l 84 1485 z "},"ē":{"ha":304,"x_min":0,"x_max":0,"o":"m 18 0 l 286 0 l 286 151 l 159 151 l 159 621 l 286 621 l 286 767 l 159 767 l 159 1238 l 286 1238 l 286 1388 l 18 1388 z m 74 1415 l 232 1415 l 232 1466 l 74 1466 z "},"ę":{"ha":304,"x_min":0,"x_max":0,"o":"m 223 -117 b 272 -101 240 -117 251 -110 l 249 -51 b 223 -62 229 -60 226 -62 b 215 -54 216 -62 215 -61 b 251 0 215 -46 230 -30 l 286 0 l 286 151 l 159 151 l 159 621 l 286 621 l 286 767 l 159 767 l 159 1238 l 286 1238 l 286 1388 l 18 1388 l 18 0 l 183 0 b 160 -55 169 -20 160 -37 b 223 -117 161 -91 194 -117 z "},"ə":{"ha":357,"x_min":0,"x_max":0,"o":"m 175 -9 l 183 -9 b 346 198 346 -9 346 126 l 346 1192 b 183 1398 346 1264 346 1398 l 175 1398 b 11 1208 23 1398 12 1281 l 11 803 l 151 803 b 151 1208 151 804 151 1207 b 178 1248 153 1240 159 1247 l 180 1248 b 207 1181 203 1248 207 1232 l 207 740 l 11 740 l 11 198 b 175 -9 11 126 12 -9 z m 151 209 l 151 604 l 207 604 l 207 209 b 181 142 207 159 203 142 l 178 142 b 151 209 154 142 151 159 z "},"f":{"ha":306,"x_min":0,"x_max":0,"o":"m 18 0 l 159 0 l 159 625 l 276 625 l 276 762 l 159 762 l 159 1238 l 287 1238 l 287 1388 l 18 1388 z "},"g":{"ha":371,"x_min":0,"x_max":0,"o":"m 153 -9 l 162 -9 b 249 48 204 -9 242 8 b 251 72 250 56 251 64 l 258 72 l 258 1 l 352 1 l 352 762 l 177 762 l 177 626 l 211 626 l 211 176 b 183 142 211 156 205 142 l 178 142 b 152 219 156 142 152 167 l 152 1180 b 179 1247 152 1231 156 1247 l 183 1247 b 211 1216 195 1247 211 1239 l 211 886 l 352 886 l 352 1223 b 188 1398 352 1304 327 1398 l 175 1398 b 11 1192 12 1398 11 1264 l 11 200 b 153 -9 11 67 61 -9 z "},"ğ":{"ha":371,"x_min":0,"x_max":0,"o":"m 153 -9 l 162 -9 b 249 48 204 -9 242 8 b 251 72 250 56 251 64 l 258 72 l 258 1 l 352 1 l 352 762 l 177 762 l 177 626 l 211 626 l 211 176 b 183 142 211 156 205 142 l 178 142 b 152 219 156 142 152 167 l 152 1180 b 179 1247 152 1231 156 1247 l 183 1247 b 211 1216 195 1247 211 1239 l 211 886 l 352 886 l 352 1223 b 188 1398 352 1304 327 1398 l 175 1398 b 11 1192 12 1398 11 1264 l 11 200 b 153 -9 11 67 61 -9 z m 100 1492 b 180 1412 100 1452 135 1412 b 260 1492 224 1412 260 1452 l 209 1492 b 180 1463 209 1474 199 1463 b 151 1492 162 1463 151 1474 z "},"ģ":{"ha":371,"x_min":0,"x_max":0,"o":"m 153 -9 l 162 -9 b 249 48 204 -9 242 8 b 251 72 250 56 251 64 l 258 72 l 258 1 l 352 1 l 352 762 l 177 762 l 177 626 l 211 626 l 211 176 b 183 142 211 156 205 142 l 178 142 b 152 219 156 142 152 167 l 152 1180 b 179 1247 152 1231 156 1247 l 183 1247 b 211 1216 195 1248 211 1239 l 211 886 l 352 886 l 352 1223 b 188 1398 352 1304 327 1398 l 175 1398 b 11 1192 12 1398 11 1264 l 11 200 b 153 -9 11 67 61 -9 z m 136 -79 b 174 -129 136 -103 152 -122 b 141 -151 164 -139 152 -144 l 170 -194 b 252 -84 195 -181 252 -146 b 195 -21 252 -45 227 -21 b 136 -79 164 -21 136 -47 z "},"ġ":{"ha":371,"x_min":0,"x_max":0,"o":"m 153 -9 l 162 -9 b 249 48 204 -9 242 8 b 251 72 250 56 251 64 l 258 72 l 258 1 l 352 1 l 352 762 l 177 762 l 177 626 l 211 626 l 211 176 b 183 142 211 156 205 142 l 178 142 b 152 219 156 142 152 167 l 152 1180 b 179 1247 152 1231 156 1247 l 183 1247 b 211 1216 195 1247 211 1239 l 211 886 l 352 886 l 352 1223 b 188 1398 352 1304 327 1398 l 175 1398 b 11 1192 12 1398 11 1264 l 11 200 b 153 -9 11 67 61 -9 z m 131 1466 b 183 1413 131 1437 154 1413 b 236 1466 213 1413 236 1436 b 183 1519 236 1493 213 1519 b 131 1466 154 1519 131 1495 z "},"h":{"ha":380,"x_min":0,"x_max":0,"o":"m 18 0 l 164 0 l 164 626 l 216 626 l 216 0 l 362 0 l 362 1388 l 216 1388 l 216 762 l 164 762 l 164 1388 l 18 1388 z "},"ħ":{"ha":400,"x_min":0,"x_max":0,"o":"m 29 0 l 174 0 l 174 626 l 226 626 l 226 0 l 372 0 l 372 1183 l 404 1183 l 404 1241 l 372 1241 l 372 1388 l 226 1388 l 226 1241 l 174 1241 l 174 1388 l 29 1388 l 29 1241 l -4 1241 l -4 1183 l 29 1183 z m 174 762 l 174 1183 l 226 1183 l 226 762 z "},"i":{"ha":182,"x_min":0,"x_max":0,"o":"m 18 0 l 164 0 l 164 1388 l 18 1388 z "},"ı":{"ha":182,"x_min":0,"x_max":0,"o":"m 18 0 l 164 0 l 164 1388 l 18 1388 z "},"í":{"ha":182,"x_min":0,"x_max":0,"o":"m 18 0 l 164 0 l 164 1388 l 18 1388 z m 12 1457 l 23 1406 l 164 1438 l 154 1488 z "},"î":{"ha":182,"x_min":0,"x_max":0,"o":"m 18 0 l 164 0 l 164 1388 l 18 1388 z m 16 1452 l 33 1405 l 91 1433 l 149 1405 l 166 1452 l 91 1488 z "},"ï":{"ha":182,"x_min":0,"x_max":0,"o":"m 18 0 l 164 0 l 164 1388 l 18 1388 z m 1 1444 b 42 1404 1 1422 19 1404 b 81 1444 64 1404 81 1421 b 42 1484 81 1465 64 1484 b 1 1444 19 1484 1 1466 z m 101 1444 b 141 1404 101 1422 118 1404 b 181 1444 163 1404 181 1421 b 141 1484 181 1465 163 1484 b 101 1444 118 1484 101 1466 z "},"ì":{"ha":182,"x_min":0,"x_max":0,"o":"m 18 0 l 164 0 l 164 1388 l 18 1388 z m 15 1434 l 162 1403 l 172 1453 l 26 1485 z "},"ĳ":{"ha":537,"x_min":0,"x_max":0,"o":"m 352 -10 l 365 -10 b 519 197 424 -10 519 7 l 519 1388 l 379 1388 l 379 216 b 357 141 379 182 377 141 l 352 141 b 330 216 335 141 330 174 l 330 632 l 189 632 l 189 197 b 352 -10 189 135 197 -10 z m 18 0 l 164 0 l 164 1388 l 18 1388 z "},"ī":{"ha":182,"x_min":0,"x_max":0,"o":"m 18 0 l 164 0 l 164 1388 l 18 1388 z m 18 1416 l 164 1416 l 164 1467 l 18 1467 z "},"į":{"ha":182,"x_min":0,"x_max":0,"o":"m 104 -117 b 154 -100 121 -117 132 -110 l 130 -51 b 104 -62 110 -60 107 -62 b 96 -54 98 -62 96 -61 b 133 0 96 -46 111 -30 l 164 0 l 164 1388 l 18 1388 l 18 0 l 64 0 b 42 -54 50 -20 42 -37 b 104 -117 42 -91 75 -117 z "},"j":{"ha":355,"x_min":0,"x_max":0,"o":"m 169 -10 l 183 -10 b 337 197 241 -10 337 7 l 337 1388 l 196 1388 l 196 216 b 175 141 196 182 195 141 l 170 141 b 148 216 153 141 148 174 l 148 632 l 7 632 l 7 197 b 169 -10 7 135 15 -10 z "},"k":{"ha":383,"x_min":0,"x_max":0,"o":"m 18 0 l 159 0 l 159 497 b 156 563 159 517 156 548 l 162 564 b 169 506 162 549 167 523 l 225 0 l 383 0 l 280 700 l 280 700 l 377 1388 l 222 1388 l 167 886 l 162 833 l 156 833 b 159 903 157 849 159 886 l 159 1388 l 18 1388 z "},"ķ":{"ha":383,"x_min":0,"x_max":0,"o":"m 18 0 l 159 0 l 159 497 b 156 563 159 517 156 548 l 162 564 b 169 507 162 549 167 523 l 225 0 l 383 0 l 280 700 l 280 700 l 377 1388 l 222 1388 l 167 886 l 162 833 l 156 833 b 159 903 157 849 159 886 l 159 1388 l 18 1388 z m 123 -79 b 161 -129 123 -103 139 -122 b 128 -151 151 -139 139 -144 l 156 -194 b 239 -84 182 -181 239 -146 b 182 -21 239 -45 213 -21 b 123 -79 151 -21 123 -47 z "},"l":{"ha":302,"x_min":0,"x_max":0,"o":"m 18 0 l 284 0 l 284 151 l 167 151 l 167 1388 l 18 1388 z "},"ĺ":{"ha":302,"x_min":0,"x_max":0,"o":"m 18 0 l 284 0 l 284 151 l 167 151 l 167 1388 l 18 1388 z m 14 1457 l 25 1407 l 167 1439 l 156 1488 z "},"ľ":{"ha":302,"x_min":0,"x_max":0,"o":"m 18 0 l 284 0 l 284 151 l 167 151 l 167 1388 l 18 1388 z m 205 1357 b 252 1294 205 1327 225 1303 b 212 1268 239 1283 224 1276 l 246 1215 b 348 1350 278 1232 348 1274 b 278 1427 348 1397 317 1427 b 205 1357 239 1427 205 1395 z "},"ļ":{"ha":302,"x_min":0,"x_max":0,"o":"m 18 0 l 284 0 l 284 151 l 167 151 l 167 1388 l 18 1388 z m 84 -79 b 122 -129 84 -103 100 -122 b 89 -151 112 -139 100 -144 l 118 -194 b 200 -84 143 -181 200 -146 b 143 -21 200 -45 175 -21 b 84 -79 112 -21 84 -47 z "},"ł":{"ha":320,"x_min":0,"x_max":0,"o":"m 37 0 l 302 0 l 302 151 l 185 151 l 185 944 l 236 967 l 212 1020 l 185 1008 l 185 1388 l 37 1388 l 37 940 l -15 917 l 10 864 l 37 876 z "},"m":{"ha":472,"x_min":0,"x_max":0,"o":"m 18 0 l 151 0 l 143 612 b 140 770 143 633 140 749 l 145 770 b 154 651 146 760 152 665 l 187 184 l 285 184 l 320 641 l 329 770 l 335 770 b 330 616 334 750 330 641 l 321 0 l 454 0 l 454 1388 l 273 1388 l 247 933 b 238 702 246 909 238 720 l 232 702 b 225 933 232 720 227 909 l 199 1388 l 18 1388 z "},"n":{"ha":382,"x_min":0,"x_max":0,"o":"m 18 0 l 151 0 l 134 637 b 126 806 134 654 129 753 l 133 807 b 148 651 137 754 146 668 l 208 0 l 363 0 l 363 1388 l 230 1388 l 248 760 l 254 583 l 247 582 b 231 760 243 640 232 744 l 173 1388 l 18 1388 z "},"ń":{"ha":382,"x_min":0,"x_max":0,"o":"m 18 0 l 151 0 l 134 637 b 126 806 134 654 129 753 l 133 807 b 148 651 137 754 146 668 l 208 0 l 363 0 l 363 1388 l 230 1388 l 248 760 l 254 583 l 247 582 b 231 760 243 640 232 744 l 173 1388 l 18 1388 z m 118 1457 l 129 1407 l 271 1439 l 260 1488 z "},"ň":{"ha":382,"x_min":0,"x_max":0,"o":"m 18 0 l 151 0 l 134 637 b 126 806 134 654 129 753 l 133 807 b 148 651 137 754 146 668 l 208 0 l 363 0 l 363 1388 l 230 1388 l 248 760 l 254 583 l 247 582 b 231 760 243 640 232 744 l 173 1388 l 18 1388 z m 108 1440 l 194 1405 l 279 1440 l 259 1488 l 194 1461 l 128 1488 z "},"ņ":{"ha":382,"x_min":0,"x_max":0,"o":"m 18 0 l 151 0 l 134 637 b 126 806 134 654 129 753 l 133 807 b 148 651 137 754 146 668 l 208 0 l 363 0 l 363 1388 l 230 1388 l 248 760 l 254 583 l 247 582 b 231 760 243 640 232 744 l 173 1388 l 18 1388 z m 138 -82 b 176 -132 138 -106 154 -125 b 143 -154 166 -142 154 -147 l 172 -197 b 254 -87 197 -183 254 -149 b 197 -24 254 -48 229 -24 b 138 -82 166 -24 138 -50 z "},"ñ":{"ha":382,"x_min":0,"x_max":0,"o":"m 18 0 l 151 0 l 134 637 b 126 806 134 654 129 753 l 133 807 b 148 651 137 754 146 668 l 208 0 l 363 0 l 363 1388 l 230 1388 l 248 760 l 254 583 l 247 582 b 231 760 243 640 232 744 l 173 1388 l 18 1388 z m 86 1447 b 156 1414 99 1431 123 1414 b 221 1437 188 1414 206 1437 b 253 1423 237 1437 246 1431 l 291 1458 b 221 1488 278 1472 253 1488 b 156 1466 189 1488 172 1466 b 125 1479 140 1466 132 1471 z "},"o":{"ha":357,"x_min":0,"x_max":0,"o":"m 175 -9 l 183 -9 b 346 197 346 -9 346 126 l 346 1192 b 183 1399 346 1264 346 1398 l 175 1399 b 11 1192 12 1398 11 1264 l 11 197 b 175 -9 11 126 11 -9 z m 151 208 l 151 1181 b 178 1248 151 1231 154 1247 l 180 1248 b 207 1181 203 1247 207 1232 l 207 208 b 180 142 207 158 202 143 l 178 142 b 151 208 154 142 151 157 z "},"ó":{"ha":357,"x_min":0,"x_max":0,"o":"m 175 -9 l 183 -9 b 346 197 346 -9 346 126 l 346 1192 b 183 1399 346 1264 346 1398 l 175 1399 b 11 1192 12 1398 11 1264 l 11 197 b 175 -9 11 126 11 -9 z m 99 1457 l 110 1407 l 251 1439 l 240 1488 z m 151 208 l 151 1181 b 178 1248 151 1231 154 1247 l 180 1248 b 207 1181 203 1247 207 1232 l 207 208 b 180 142 207 158 202 143 l 178 142 b 151 208 154 142 151 157 z "},"ô":{"ha":357,"x_min":0,"x_max":0,"o":"m 175 -9 l 183 -9 b 346 197 346 -9 346 126 l 346 1192 b 183 1399 346 1264 346 1398 l 175 1399 b 11 1192 12 1398 11 1264 l 11 197 b 175 -9 11 126 11 -9 z m 93 1452 l 112 1405 l 180 1433 l 247 1405 l 266 1452 l 180 1488 z m 151 208 l 151 1181 b 178 1248 151 1231 154 1247 l 180 1248 b 207 1181 203 1247 207 1232 l 207 208 b 180 142 207 158 202 143 l 178 142 b 151 208 154 142 151 157 z "},"ö":{"ha":357,"x_min":0,"x_max":0,"o":"m 175 -9 l 183 -9 b 346 197 346 -9 346 126 l 346 1192 b 183 1399 346 1264 346 1398 l 175 1399 b 11 1192 12 1398 11 1264 l 11 197 b 175 -9 11 126 11 -9 z m 90 1448 b 129 1408 90 1426 107 1408 b 170 1448 152 1408 170 1425 b 129 1488 170 1469 152 1488 b 90 1448 107 1488 90 1470 z m 151 208 l 151 1181 b 178 1248 151 1231 154 1247 l 180 1248 b 207 1181 203 1247 207 1232 l 207 208 b 180 142 207 158 202 143 l 178 142 b 151 208 154 142 151 157 z m 189 1448 b 230 1408 189 1426 207 1408 b 269 1448 251 1408 269 1425 b 230 1488 269 1469 251 1488 b 189 1448 207 1488 189 1470 z "},"ò":{"ha":357,"x_min":0,"x_max":0,"o":"m 175 -9 l 183 -9 b 346 197 346 -9 346 126 l 346 1192 b 183 1399 346 1264 346 1398 l 175 1399 b 11 1192 12 1398 11 1264 l 11 197 b 175 -9 11 126 11 -9 z m 106 1434 l 252 1403 l 262 1453 l 117 1485 z m 151 208 l 151 1181 b 178 1248 151 1231 154 1247 l 180 1248 b 207 1181 203 1247 207 1232 l 207 208 b 180 142 207 158 202 143 l 178 142 b 151 208 154 142 151 157 z "},"ő":{"ha":357,"x_min":0,"x_max":0,"o":"m 175 -9 l 183 -9 b 346 197 346 -9 346 126 l 346 1192 b 183 1399 346 1264 346 1398 l 175 1399 b 11 1192 12 1398 11 1264 l 11 197 b 175 -9 11 126 11 -9 z m 70 1458 l 118 1419 l 201 1520 l 154 1560 z m 151 208 l 151 1181 b 178 1248 151 1231 154 1247 l 180 1248 b 207 1181 203 1247 207 1232 l 207 208 b 180 142 207 158 202 143 l 178 142 b 151 208 154 142 151 157 z m 181 1452 l 230 1413 l 312 1515 l 265 1554 z "},"ō":{"ha":357,"x_min":0,"x_max":0,"o":"m 175 -9 l 183 -9 b 346 197 346 -9 346 126 l 346 1192 b 183 1399 346 1264 346 1398 l 175 1399 b 11 1192 12 1398 11 1264 l 11 197 b 175 -9 11 126 11 -9 z m 99 1419 l 258 1419 l 258 1470 l 99 1470 z m 151 208 l 151 1181 b 178 1248 151 1231 154 1247 l 180 1248 b 207 1181 203 1247 207 1232 l 207 208 b 180 142 207 158 202 143 l 178 142 b 151 208 154 142 151 157 z "},"ø":{"ha":357,"x_min":0,"x_max":0,"o":"m 175 -9 l 183 -9 b 346 197 346 -9 346 126 l 346 1223 l 378 1354 l 321 1368 l 315 1341 b 183 1399 292 1374 251 1398 l 175 1399 b 11 1192 12 1398 11 1264 l 11 197 b 17 113 11 174 11 143 l -4 24 l 53 10 l 57 31 b 175 -9 82 7 118 -9 z m 151 208 l 151 416 l 207 648 l 207 208 b 180 142 207 158 202 143 l 178 142 b 151 208 154 142 151 157 z m 151 664 l 151 1181 b 178 1248 151 1231 154 1247 l 180 1248 b 207 1181 203 1247 207 1232 l 207 896 z "},"õ":{"ha":357,"x_min":0,"x_max":0,"o":"m 175 -9 l 183 -9 b 346 197 346 -9 346 126 l 346 1192 b 183 1399 346 1264 346 1398 l 175 1399 b 11 1192 12 1398 11 1264 l 11 197 b 175 -9 11 126 11 -9 z m 76 1450 b 146 1417 88 1434 113 1417 b 212 1440 178 1417 196 1440 b 243 1426 227 1440 235 1434 l 281 1461 b 212 1491 268 1475 243 1491 b 146 1469 180 1491 162 1469 b 115 1482 130 1469 122 1474 z m 151 208 l 151 1181 b 178 1248 151 1231 154 1247 l 180 1248 b 207 1181 203 1247 207 1232 l 207 208 b 180 142 207 158 202 143 l 178 142 b 151 208 154 142 151 157 z "},"œ":{"ha":496,"x_min":0,"x_max":0,"o":"m 175 -9 l 183 -9 b 246 0 208 -9 229 -6 l 477 0 l 477 151 l 350 151 l 350 626 l 477 626 l 477 762 l 350 762 l 350 1238 l 477 1238 l 477 1388 l 249 1388 b 183 1398 232 1395 209 1398 l 175 1398 b 11 1192 12 1398 11 1264 l 11 197 b 175 -9 11 126 11 -9 z m 151 208 l 151 1181 b 178 1248 151 1231 154 1248 l 180 1248 b 207 1181 203 1248 207 1231 l 207 208 b 180 142 207 158 202 143 l 178 142 b 151 208 154 142 151 157 z "},"p":{"ha":376,"x_min":0,"x_max":0,"o":"m 18 0 l 159 0 l 159 583 l 192 583 b 358 757 299 583 358 645 l 358 1215 b 192 1389 358 1325 297 1389 l 18 1389 z m 159 725 l 159 1238 l 183 1238 b 216 1202 210 1238 216 1212 l 216 760 b 185 725 216 738 205 725 z "},"þ":{"ha":376,"x_min":0,"x_max":0,"o":"m 18 0 l 159 0 l 159 311 l 192 311 b 358 469 299 311 358 368 l 358 916 b 192 1082 358 1018 299 1082 l 159 1082 l 159 1387 l 18 1387 z m 159 446 l 159 945 l 183 945 b 216 917 210 945 216 928 l 216 472 b 185 446 216 457 202 446 z "},"q":{"ha":362,"x_min":0,"x_max":0,"o":"m 343 -132 l 343 -14 l 292 -4 b 243 -1 275 -1 255 -1 l 243 5 l 244 5 b 277 10 257 5 269 6 b 351 199 344 46 351 126 l 351 1191 b 187 1398 351 1263 350 1398 l 175 1398 b 11 1191 12 1398 11 1263 l 11 198 b 150 -9 11 70 55 -3 l 153 -10 l 153 -105 z m 152 200 l 152 1179 b 180 1247 152 1230 156 1247 l 182 1247 b 210 1180 206 1247 210 1230 l 210 200 b 182 134 210 149 205 134 l 180 134 b 152 200 156 133 152 149 z "},"r":{"ha":371,"x_min":0,"x_max":0,"o":"m 18 0 l 159 0 l 159 599 l 179 599 b 205 564 203 599 205 564 l 205 0 l 352 0 b 349 558 351 31 349 520 b 281 657 349 613 318 657 l 281 663 b 360 774 325 663 360 731 l 360 1229 b 187 1389 360 1360 266 1389 l 18 1389 z m 159 737 l 159 1238 l 185 1238 b 213 1211 212 1238 213 1218 l 213 762 b 186 737 213 755 211 737 z "},"ŕ":{"ha":371,"x_min":0,"x_max":0,"o":"m 18 0 l 159 0 l 159 599 l 179 599 b 205 564 203 599 205 564 l 205 0 l 352 0 b 349 558 351 31 349 520 b 281 657 349 613 318 657 l 281 663 b 360 774 325 663 360 731 l 360 1229 b 187 1389 360 1360 266 1389 l 18 1389 z m 98 1457 l 109 1407 l 251 1438 l 240 1488 z m 159 737 l 159 1238 l 185 1238 b 213 1211 212 1238 213 1218 l 213 762 b 186 737 213 755 211 737 z "},"ř":{"ha":371,"x_min":0,"x_max":0,"o":"m 18 0 l 159 0 l 159 599 l 179 599 b 205 564 203 599 205 564 l 205 0 l 352 0 b 349 558 351 31 349 520 b 281 657 349 613 318 657 l 281 663 b 360 774 325 663 360 731 l 360 1229 b 187 1389 360 1360 266 1389 l 18 1389 z m 91 1440 l 176 1405 l 261 1440 l 241 1488 l 176 1460 l 110 1488 z m 159 737 l 159 1238 l 185 1238 b 213 1211 212 1238 213 1218 l 213 762 b 186 737 213 755 211 737 z "},"ŗ":{"ha":371,"x_min":0,"x_max":0,"o":"m 18 0 l 159 0 l 159 599 l 179 599 b 205 564 203 599 205 564 l 205 0 l 352 0 b 349 558 351 31 349 520 b 281 657 349 613 318 657 l 281 663 b 360 774 325 663 360 731 l 360 1229 b 187 1389 360 1360 266 1389 l 18 1389 z m 129 -79 b 167 -129 129 -103 145 -122 b 135 -151 157 -139 145 -144 l 163 -194 b 246 -84 189 -181 246 -146 b 189 -21 246 -45 220 -21 b 129 -79 157 -21 129 -47 z m 159 737 l 159 1238 l 185 1238 b 213 1211 212 1238 213 1218 l 213 762 b 186 737 213 755 211 737 z "},"s":{"ha":363,"x_min":0,"x_max":0,"o":"m 180 -9 l 182 -9 b 352 148 289 -9 352 45 l 352 558 b 219 759 352 663 276 732 b 163 835 180 773 163 809 l 163 1230 b 183 1248 163 1240 172 1248 l 185 1248 b 211 1215 205 1248 211 1230 l 211 819 l 351 819 l 351 1227 b 181 1399 351 1368 259 1399 l 178 1399 b 13 1247 75 1399 13 1354 l 13 836 b 140 638 13 732 75 663 b 202 556 190 618 202 580 l 202 161 b 180 143 202 150 194 143 l 178 143 b 152 178 168 143 152 154 l 152 575 l 11 575 l 11 178 b 180 -9 11 55 68 -9 z "},"ś":{"ha":363,"x_min":0,"x_max":0,"o":"m 180 -9 l 182 -9 b 352 148 289 -9 352 45 l 352 558 b 219 759 352 663 276 732 b 163 835 180 773 163 809 l 163 1230 b 183 1248 163 1240 172 1248 l 185 1248 b 211 1215 205 1248 211 1230 l 211 819 l 351 819 l 351 1227 b 181 1399 351 1368 259 1399 l 178 1399 b 13 1247 75 1399 13 1354 l 13 836 b 140 638 13 732 75 663 b 202 556 190 618 202 580 l 202 161 b 180 143 202 150 194 143 l 178 143 b 152 178 168 143 152 154 l 152 575 l 11 575 l 11 178 b 180 -9 11 55 68 -9 z m 108 1460 l 119 1410 l 261 1442 l 250 1491 z "},"š":{"ha":363,"x_min":0,"x_max":0,"o":"m 180 -9 l 182 -9 b 352 148 289 -9 352 45 l 352 558 b 219 759 352 663 276 732 b 163 835 180 773 163 809 l 163 1230 b 183 1248 163 1240 172 1248 l 185 1248 b 211 1215 205 1248 211 1230 l 211 819 l 351 819 l 351 1227 b 181 1399 351 1368 259 1399 l 178 1399 b 13 1247 75 1399 13 1354 l 13 836 b 140 638 13 732 75 663 b 202 556 190 618 202 580 l 202 161 b 180 143 202 150 194 143 l 178 143 b 152 178 168 143 152 154 l 152 575 l 11 575 l 11 178 b 180 -9 11 55 68 -9 z m 95 1443 l 181 1408 l 265 1443 l 246 1490 l 181 1463 l 115 1490 z "},"ş":{"ha":363,"x_min":0,"x_max":0,"o":"m 186 -157 b 255 -89 224 -157 255 -127 b 211 -31 255 -59 237 -39 l 216 -7 b 352 148 303 4 352 57 l 352 558 b 219 759 352 663 276 732 b 163 835 180 773 163 809 l 163 1230 b 183 1248 163 1240 172 1248 l 185 1248 b 211 1215 205 1248 211 1230 l 211 819 l 351 819 l 351 1227 b 181 1399 351 1368 259 1399 l 178 1399 b 13 1247 75 1399 13 1354 l 13 836 b 140 638 13 732 75 663 b 202 556 190 618 202 580 l 202 161 b 180 143 202 150 194 143 l 178 143 b 152 178 168 143 152 154 l 152 575 l 11 575 l 11 178 b 164 -8 11 61 62 -2 l 148 -77 l 180 -76 b 202 -91 200 -76 202 -85 b 184 -108 202 -98 198 -108 b 146 -93 170 -108 159 -101 l 131 -137 l 132 -140 b 186 -157 135 -143 157 -157 z "},"ș":{"ha":363,"x_min":0,"x_max":0,"o":"m 180 -9 l 182 -9 b 352 148 289 -9 352 45 l 352 558 b 219 759 352 663 276 732 b 163 835 180 773 163 809 l 163 1230 b 183 1248 163 1240 172 1248 l 185 1248 b 211 1215 205 1248 211 1230 l 211 819 l 351 819 l 351 1227 b 181 1399 351 1368 259 1399 l 178 1399 b 13 1247 75 1399 13 1354 l 13 836 b 140 638 13 732 75 663 b 202 556 190 618 202 580 l 202 161 b 180 143 202 150 194 143 l 178 143 b 152 178 168 143 152 154 l 152 575 l 11 575 l 11 178 b 180 -9 11 55 68 -9 z m 132 -79 b 170 -129 132 -103 148 -122 b 137 -151 160 -139 148 -144 l 166 -194 b 249 -84 192 -181 249 -146 b 192 -21 249 -45 223 -21 b 132 -79 160 -21 132 -47 z "},"ß":{"ha":379,"x_min":0,"x_max":0,"o":"m 180 131 l 180 -19 b 376 133 279 -19 376 10 l 376 584 b 330 677 375 621 356 657 b 289 692 320 683 301 692 l 289 697 b 314 705 298 697 306 700 b 359 803 342 723 359 770 l 359 1246 b 197 1393 359 1343 287 1393 l 183 1393 b 18 1246 85 1393 18 1343 l 18 0 l 156 0 l 156 1224 b 186 1247 156 1240 174 1247 l 187 1247 b 216 1221 205 1247 216 1237 l 216 773 b 181 746 216 756 197 746 l 181 652 b 229 613 211 652 229 637 l 229 168 b 180 131 229 144 211 131 z "},"t":{"ha":349,"x_min":0,"x_max":0,"o":"m 104 0 l 246 0 l 246 1238 l 335 1238 l 335 1388 l 15 1388 l 15 1238 l 104 1238 z "},"ť":{"ha":349,"x_min":0,"x_max":0,"o":"m 104 0 l 246 0 l 246 1238 l 335 1238 l 335 1388 l 15 1388 l 15 1238 l 104 1238 z m 88 1440 l 174 1405 l 259 1440 l 240 1488 l 174 1461 l 108 1488 z "},"ţ":{"ha":349,"x_min":0,"x_max":0,"o":"m 171 -157 b 240 -89 210 -157 240 -127 b 197 -31 240 -59 222 -39 l 203 0 l 246 0 l 246 1238 l 335 1238 l 335 1388 l 15 1388 l 15 1238 l 104 1238 l 104 0 l 151 0 l 134 -77 l 165 -76 b 188 -91 185 -76 188 -85 b 170 -108 188 -98 183 -108 b 132 -93 156 -108 145 -101 l 116 -137 l 118 -140 b 171 -157 121 -143 143 -157 z "},"ț":{"ha":349,"x_min":0,"x_max":0,"o":"m 104 0 l 246 0 l 246 1238 l 335 1238 l 335 1388 l 15 1388 l 15 1238 l 104 1238 z m 116 -79 b 154 -129 116 -103 132 -122 b 121 -151 144 -139 132 -144 l 150 -194 b 232 -84 175 -181 232 -146 b 175 -21 232 -45 207 -21 b 116 -79 144 -21 116 -47 z "},"u":{"ha":368,"x_min":0,"x_max":0,"o":"m 178 -10 l 191 -10 b 350 197 349 -9 350 130 l 350 1388 l 209 1388 l 209 214 b 185 141 209 161 205 142 l 183 141 b 159 214 163 142 159 161 l 159 1388 l 18 1388 l 18 197 b 178 -10 18 130 18 -9 z "},"ú":{"ha":368,"x_min":0,"x_max":0,"o":"m 178 -10 l 191 -10 b 350 197 349 -9 350 130 l 350 1388 l 209 1388 l 209 214 b 185 141 209 161 205 142 l 183 141 b 159 214 163 142 159 161 l 159 1388 l 18 1388 l 18 197 b 178 -10 18 130 18 -9 z m 104 1457 l 115 1407 l 257 1439 l 246 1488 z "},"û":{"ha":368,"x_min":0,"x_max":0,"o":"m 178 -10 l 191 -10 b 350 197 349 -9 350 130 l 350 1388 l 209 1388 l 209 214 b 185 141 209 161 205 142 l 183 141 b 159 214 163 142 159 161 l 159 1388 l 18 1388 l 18 197 b 178 -10 18 130 18 -9 z m 97 1452 l 116 1405 l 184 1433 l 251 1405 l 270 1452 l 184 1488 z "},"ü":{"ha":368,"x_min":0,"x_max":0,"o":"m 178 -10 l 191 -10 b 350 197 349 -9 350 130 l 350 1388 l 209 1388 l 209 214 b 185 141 209 161 205 142 l 183 141 b 159 214 163 142 159 161 l 159 1388 l 18 1388 l 18 197 b 178 -10 18 130 18 -9 z m 94 1444 b 135 1404 94 1422 113 1404 b 175 1444 157 1404 175 1421 b 135 1484 175 1465 156 1484 b 94 1444 113 1484 94 1466 z m 194 1444 b 234 1404 194 1422 212 1404 b 274 1444 257 1404 274 1421 b 234 1484 274 1465 257 1484 b 194 1444 212 1484 194 1466 z "},"ù":{"ha":368,"x_min":0,"x_max":0,"o":"m 178 -10 l 191 -10 b 350 197 349 -9 350 130 l 350 1388 l 209 1388 l 209 214 b 185 141 209 161 205 142 l 183 141 b 159 214 163 142 159 161 l 159 1388 l 18 1388 l 18 197 b 178 -10 18 130 18 -9 z m 107 1434 l 254 1403 l 264 1453 l 118 1485 z "},"ű":{"ha":368,"x_min":0,"x_max":0,"o":"m 178 -10 l 191 -10 b 350 197 349 -9 350 130 l 350 1388 l 209 1388 l 209 214 b 185 141 209 161 205 142 l 183 141 b 159 214 163 142 159 161 l 159 1388 l 18 1388 l 18 197 b 178 -10 18 130 18 -9 z m 82 1458 l 130 1419 l 213 1520 l 165 1560 z m 193 1452 l 241 1413 l 324 1515 l 276 1554 z "},"ū":{"ha":368,"x_min":0,"x_max":0,"o":"m 178 -10 l 191 -10 b 350 197 349 -9 350 130 l 350 1388 l 209 1388 l 209 214 b 185 141 209 161 205 142 l 183 141 b 159 214 163 142 159 161 l 159 1388 l 18 1388 l 18 197 b 178 -10 18 130 18 -9 z m 105 1416 l 263 1416 l 263 1467 l 105 1467 z "},"ų":{"ha":368,"x_min":0,"x_max":0,"o":"m 237 -117 b 286 -100 254 -117 265 -110 l 262 -51 b 237 -62 243 -60 240 -62 b 229 -54 230 -62 229 -61 b 270 7 229 -46 246 -27 b 350 197 350 46 350 144 l 350 1388 l 209 1388 l 209 214 b 185 141 209 161 205 142 l 183 141 b 159 214 163 142 159 161 l 159 1388 l 18 1388 l 18 197 b 178 -10 18 130 18 -9 l 191 -10 b 174 -54 181 -26 174 -39 b 237 -117 175 -91 208 -117 z "},"ů":{"ha":368,"x_min":0,"x_max":0,"o":"m 178 -10 l 191 -10 b 350 197 349 -9 350 130 l 350 1388 l 209 1388 l 209 214 b 185 141 209 161 205 142 l 183 141 b 159 214 163 142 159 161 l 159 1388 l 18 1388 l 18 197 b 178 -10 18 130 18 -9 z m 109 1479 b 183 1404 109 1438 143 1404 b 258 1479 224 1404 258 1438 b 183 1553 258 1520 224 1553 b 109 1479 143 1553 109 1520 z m 164 1479 b 183 1499 164 1493 169 1499 b 203 1479 198 1499 203 1493 b 183 1459 203 1464 198 1459 b 164 1479 169 1459 164 1464 z "},"v":{"ha":362,"x_min":0,"x_max":0,"o":"m 96 0 l 265 0 l 365 1388 l 217 1388 l 187 626 b 184 510 186 612 184 531 l 178 510 b 175 626 178 531 176 610 l 145 1388 l -4 1388 z "},"w":{"ha":529,"x_min":0,"x_max":0,"o":"m 61 0 l 231 0 l 257 589 b 261 705 259 607 261 686 l 267 705 b 272 589 267 686 271 606 l 298 0 l 468 0 l 533 1388 l 390 1388 b 370 706 379 1274 370 738 b 366 502 366 482 366 504 l 360 502 b 356 734 360 516 357 720 l 327 1388 l 202 1388 l 173 734 b 167 502 173 718 167 523 l 162 502 l 159 706 l 140 1388 l -4 1388 z "},"ẃ":{"ha":529,"x_min":0,"x_max":0,"o":"m 61 0 l 231 0 l 257 589 b 261 705 259 607 261 686 l 267 705 b 272 589 267 686 271 606 l 298 0 l 468 0 l 533 1388 l 390 1388 b 370 706 379 1274 370 738 b 366 502 366 482 366 504 l 360 502 b 356 734 360 516 357 720 l 327 1388 l 202 1388 l 173 734 b 167 502 173 718 167 523 l 162 502 l 159 706 l 140 1388 l -4 1388 z m 182 1457 l 193 1407 l 335 1439 l 324 1488 z "},"ŵ":{"ha":529,"x_min":0,"x_max":0,"o":"m 61 0 l 231 0 l 257 589 b 261 705 259 607 261 686 l 267 705 b 272 589 267 686 271 606 l 298 0 l 468 0 l 533 1388 l 390 1388 b 370 706 379 1274 370 738 b 366 502 366 482 366 504 l 360 502 b 356 734 360 516 357 720 l 327 1388 l 202 1388 l 173 734 b 167 502 173 718 167 523 l 162 502 l 159 706 l 140 1388 l -4 1388 z m 178 1452 l 197 1405 l 264 1433 l 332 1405 l 351 1452 l 264 1488 z "},"ẅ":{"ha":529,"x_min":0,"x_max":0,"o":"m 61 0 l 231 0 l 257 589 b 261 705 259 607 261 686 l 267 705 b 272 589 267 686 271 606 l 298 0 l 468 0 l 533 1388 l 390 1388 b 370 706 379 1274 370 738 b 366 502 366 482 366 504 l 360 502 b 356 734 360 516 357 720 l 327 1388 l 202 1388 l 173 734 b 167 502 173 718 167 523 l 162 502 l 159 706 l 140 1388 l -4 1388 z m 175 1444 b 215 1404 175 1422 193 1404 b 255 1444 237 1404 255 1421 b 215 1484 255 1465 237 1484 b 175 1444 193 1484 175 1466 z m 274 1444 b 314 1404 274 1422 292 1404 b 355 1444 337 1404 355 1421 b 314 1484 355 1465 336 1484 b 274 1444 292 1484 274 1466 z "},"ẁ":{"ha":529,"x_min":0,"x_max":0,"o":"m 61 0 l 231 0 l 257 589 b 261 705 259 607 261 686 l 267 705 b 272 589 267 686 271 606 l 298 0 l 468 0 l 533 1388 l 390 1388 b 370 706 379 1274 370 738 b 366 502 366 482 366 504 l 360 502 b 356 734 360 516 357 720 l 327 1388 l 202 1388 l 173 734 b 167 502 173 718 167 523 l 162 502 l 159 706 l 140 1388 l -4 1388 z m 192 1434 l 338 1403 l 349 1453 l 203 1485 z "},"x":{"ha":390,"x_min":0,"x_max":0,"o":"m -4 0 l 153 0 l 189 465 b 192 517 189 475 192 507 l 197 517 b 202 465 197 507 201 474 l 238 0 l 393 0 l 316 692 l 393 1388 l 237 1388 l 202 923 b 197 868 202 915 197 876 l 192 868 b 188 923 192 876 189 914 l 154 1388 l -3 1388 l 73 692 z "},"y":{"ha":378,"x_min":0,"x_max":0,"o":"m 118 0 l 260 0 l 260 550 l 382 1389 l 235 1389 l 194 949 b 190 882 193 936 190 895 l 184 882 b 182 949 184 895 183 936 l 145 1389 l -4 1389 l 118 550 z "},"ý":{"ha":378,"x_min":0,"x_max":0,"o":"m 118 0 l 260 0 l 260 550 l 382 1389 l 235 1389 l 194 949 b 190 882 193 936 190 895 l 184 882 b 182 949 184 895 183 936 l 145 1389 l -4 1389 l 118 550 z m 111 1457 l 122 1407 l 264 1439 l 253 1488 z "},"ŷ":{"ha":378,"x_min":0,"x_max":0,"o":"m 118 0 l 260 0 l 260 550 l 382 1389 l 235 1389 l 194 949 b 190 882 193 936 190 895 l 184 882 b 182 949 184 895 183 936 l 145 1389 l -4 1389 l 118 550 z m 102 1452 l 122 1405 l 189 1433 l 257 1405 l 276 1452 l 189 1488 z "},"ÿ":{"ha":378,"x_min":0,"x_max":0,"o":"m 118 0 l 260 0 l 260 550 l 382 1389 l 235 1389 l 194 949 b 190 882 193 936 190 895 l 184 882 b 182 949 184 895 183 936 l 145 1389 l -4 1389 l 118 550 z m 99 1444 b 139 1404 99 1422 117 1404 b 179 1444 162 1404 179 1421 b 139 1484 179 1465 162 1484 b 99 1444 117 1484 99 1466 z m 199 1444 b 239 1404 199 1422 216 1404 b 279 1444 261 1404 279 1421 b 239 1484 279 1465 261 1484 b 199 1444 216 1484 199 1466 z "},"ỳ":{"ha":378,"x_min":0,"x_max":0,"o":"m 118 0 l 260 0 l 260 550 l 382 1389 l 235 1389 l 194 949 b 190 882 193 936 190 895 l 184 882 b 182 949 184 895 183 936 l 145 1389 l -4 1389 l 118 550 z m 117 1434 l 263 1403 l 273 1453 l 128 1485 z "},"z":{"ha":342,"x_min":0,"x_max":0,"o":"m 18 0 l 324 0 l 324 151 l 178 151 b 162 149 170 151 167 151 l 160 151 b 164 162 162 154 163 157 l 324 1278 l 324 1388 l 18 1388 l 18 1238 l 159 1238 b 175 1238 167 1238 173 1238 l 176 1237 b 174 1228 175 1235 175 1232 l 18 121 z "},"ź":{"ha":342,"x_min":0,"x_max":0,"o":"m 18 0 l 324 0 l 324 151 l 178 151 b 162 149 170 151 167 151 l 160 151 b 164 162 162 154 163 157 l 324 1278 l 324 1388 l 18 1388 l 18 1238 l 159 1238 b 175 1238 167 1238 173 1238 l 176 1237 b 174 1228 175 1235 175 1232 l 18 121 z m 99 1457 l 110 1407 l 251 1438 l 240 1488 z "},"ž":{"ha":342,"x_min":0,"x_max":0,"o":"m 18 0 l 324 0 l 324 151 l 178 151 b 162 149 170 151 167 151 l 160 151 b 164 162 162 154 163 157 l 324 1278 l 324 1388 l 18 1388 l 18 1238 l 159 1238 b 175 1238 167 1238 173 1238 l 176 1237 b 174 1228 175 1235 175 1232 l 18 121 z m 85 1440 l 170 1405 l 256 1440 l 236 1488 l 170 1460 l 105 1488 z "},"ż":{"ha":342,"x_min":0,"x_max":0,"o":"m 18 0 l 324 0 l 324 151 l 178 151 b 162 149 170 151 167 151 l 160 151 b 164 162 162 154 163 157 l 324 1278 l 324 1388 l 18 1388 l 18 1238 l 159 1238 b 175 1238 167 1238 173 1238 l 176 1237 b 174 1228 175 1235 175 1232 l 18 121 z m 118 1458 b 170 1406 118 1430 141 1406 b 223 1458 200 1406 223 1429 b 170 1512 223 1486 200 1512 b 118 1458 141 1512 118 1488 z "},"ﬁ":{"ha":480,"x_min":0,"x_max":0,"o":"m 18 0 l 159 0 l 159 625 l 276 625 l 276 762 l 159 762 l 159 1238 l 287 1238 l 287 1388 l 18 1388 z m 317 0 l 462 0 l 462 1388 l 317 1388 z "},"ﬂ":{"ha":600,"x_min":0,"x_max":0,"o":"m 18 0 l 159 0 l 159 625 l 276 625 l 276 762 l 159 762 l 159 1238 l 287 1238 l 287 1388 l 18 1388 z m 317 0 l 582 0 l 582 151 l 465 151 l 465 1388 l 317 1388 z "},"ª":{"ha":182,"x_min":0,"x_max":0,"o":"m 1 1160 l 64 1160 l 72 1194 l 110 1194 l 118 1160 l 182 1160 l 135 1390 l 48 1390 z m 80 1251 l 81 1253 b 83 1257 82 1254 82 1256 l 88 1303 b 89 1323 89 1310 89 1318 l 92 1323 b 94 1303 92 1318 93 1310 l 99 1257 b 101 1253 99 1256 100 1254 l 102 1251 l 100 1249 l 99 1250 b 95 1251 98 1251 96 1251 l 87 1251 b 83 1250 86 1251 84 1251 l 82 1249 z "},"º":{"ha":151,"x_min":0,"x_max":0,"o":"m 73 1155 l 77 1156 b 151 1248 151 1156 151 1216 l 151 1301 b 77 1394 151 1333 151 1393 l 73 1394 b -1 1301 0 1393 -1 1333 l -1 1248 b 73 1155 -1 1216 -1 1155 z m 62 1253 l 62 1296 b 75 1326 62 1319 64 1326 l 75 1326 b 88 1296 86 1325 88 1319 l 88 1253 b 75 1223 88 1230 86 1223 l 75 1223 b 62 1253 64 1223 62 1230 z "},"⁰":{"ha":167,"x_min":0,"x_max":0,"o":"m 84 914 b 149 985 124 914 149 944 l 149 1326 b 84 1398 149 1368 124 1398 b 18 1326 43 1398 18 1368 l 18 985 b 84 914 18 944 43 914 z m 51 985 l 51 1326 b 84 1365 51 1351 63 1365 b 116 1326 105 1365 116 1351 l 116 985 b 84 947 116 961 105 947 b 51 985 63 947 51 961 z "},"¹":{"ha":113,"x_min":0,"x_max":0,"o":"m 58 1316 l 58 914 l 91 914 l 91 1389 l 65 1389 l 0 1304 l 25 1283 l 51 1316 b 58 1330 53 1319 57 1325 l 61 1329 b 58 1316 59 1324 58 1318 z "},"²":{"ha":167,"x_min":0,"x_max":0,"o":"m 28 919 l 149 919 l 149 952 l 61 952 l 87 1045 b 149 1327 97 1081 149 1256 b 84 1398 149 1369 124 1398 b 18 1327 44 1398 18 1369 l 18 1281 l 51 1281 l 51 1327 b 84 1365 51 1352 63 1365 b 116 1327 105 1365 116 1352 b 64 1077 116 1260 82 1140 l 28 951 z "},"³":{"ha":167,"x_min":0,"x_max":0,"o":"m 84 914 b 149 985 124 914 149 942 l 149 1113 b 122 1164 149 1133 143 1164 l 122 1167 b 149 1216 141 1167 149 1197 l 149 1326 b 84 1398 149 1371 121 1398 b 18 1326 44 1398 18 1368 l 18 1281 l 51 1281 l 51 1326 b 84 1365 51 1351 63 1365 b 116 1326 105 1365 116 1351 l 116 1216 b 83 1181 116 1192 102 1181 l 53 1181 l 53 1148 l 83 1148 b 116 1113 105 1148 116 1137 l 116 985 b 84 947 116 960 105 947 b 51 985 63 947 51 960 l 51 1035 l 18 1035 l 18 985 b 84 914 18 940 46 914 z "},"⁄":{"ha":379,"x_min":0,"x_max":0,"o":"m 0 0 l 58 0 l 379 1389 l 322 1389 z "},"½":{"ha":376,"x_min":0,"x_max":0,"o":"m 61 969 l 99 969 l 303 1389 l 265 1389 z m 18 1308 l 43 1287 l 69 1319 b 76 1332 72 1321 75 1328 l 79 1331 b 77 1318 77 1326 77 1321 l 77 1130 l 110 1130 l 110 1386 l 83 1386 z m 227 1141 l 260 1141 l 260 1158 b 293 1196 260 1183 272 1196 b 325 1158 314 1196 325 1183 b 273 1053 325 1133 303 1098 l 236 996 l 236 969 l 358 969 l 358 1001 l 279 1001 l 300 1035 b 358 1158 334 1086 358 1124 b 293 1229 358 1200 333 1229 b 227 1158 253 1229 227 1200 z "},"¼":{"ha":357,"x_min":0,"x_max":0,"o":"m 61 969 l 99 969 l 303 1389 l 265 1389 z m 18 1308 l 43 1287 l 69 1319 b 76 1332 72 1321 75 1328 l 79 1331 b 77 1318 77 1326 77 1321 l 77 1130 l 110 1130 l 110 1386 l 83 1386 z m 179 1019 l 282 1019 l 282 969 l 315 969 l 315 1019 l 339 1019 l 339 1052 l 315 1052 l 315 1225 l 278 1225 z m 228 1053 b 235 1059 232 1055 234 1058 l 273 1140 b 281 1171 275 1145 280 1162 l 285 1171 b 282 1140 283 1162 282 1145 l 282 1052 l 238 1052 b 230 1050 236 1052 232 1051 z "},"¾":{"ha":370,"x_min":0,"x_max":0,"o":"m 73 969 l 111 969 l 316 1389 l 278 1389 z m 18 1202 b 84 1131 18 1158 46 1131 b 149 1202 124 1131 149 1160 l 149 1218 b 122 1269 149 1238 143 1269 l 122 1272 b 149 1322 141 1272 149 1303 l 149 1325 b 84 1396 149 1370 121 1396 b 18 1325 44 1396 18 1367 l 18 1308 l 51 1308 l 51 1325 b 84 1363 51 1349 63 1363 b 116 1325 105 1363 116 1349 l 116 1322 b 83 1287 116 1298 102 1287 l 60 1287 l 60 1254 l 83 1254 b 116 1218 105 1254 116 1242 l 116 1202 b 84 1164 116 1178 105 1164 b 51 1202 63 1164 51 1178 l 51 1216 l 18 1216 z m 192 1019 l 295 1019 l 295 969 l 327 969 l 327 1019 l 352 1019 l 352 1052 l 327 1052 l 327 1225 l 290 1225 z m 240 1053 b 247 1059 244 1054 246 1058 l 286 1140 b 295 1171 287 1145 292 1162 l 298 1171 b 295 1140 296 1162 295 1145 l 295 1052 l 251 1052 b 242 1050 249 1052 244 1051 z "},".":{"ha":177,"x_min":0,"x_max":0,"o":"m 88 3 b 159 73 128 3 159 34 b 88 143 159 110 128 143 b 18 73 50 143 18 112 b 88 3 18 34 50 3 z "},",":{"ha":179,"x_min":0,"x_max":0,"o":"m 25 -15 l 59 -68 b 161 67 91 -52 161 -10 b 91 143 161 114 130 143 b 18 73 52 143 18 112 b 65 11 18 43 38 20 b 25 -15 53 0 38 -7 z "},":":{"ha":177,"x_min":0,"x_max":0,"o":"m 88 689 b 159 759 128 689 159 719 b 88 829 159 796 128 829 b 18 759 50 829 18 798 b 88 689 18 720 50 689 z m 18 586 b 88 516 18 548 50 516 b 159 586 128 516 159 547 b 88 656 159 624 128 656 b 18 586 50 656 18 625 z "},";":{"ha":179,"x_min":0,"x_max":0,"o":"m 25 -15 l 59 -68 b 161 67 91 -52 161 -10 b 91 143 161 114 130 143 b 18 73 52 143 18 112 b 65 11 18 43 38 20 b 25 -15 53 0 38 -7 z m 18 240 b 88 170 18 202 50 170 b 159 240 128 170 159 201 b 88 311 159 278 128 311 b 18 240 50 311 18 279 z "},"…":{"ha":510,"x_min":0,"x_max":0,"o":"m 421 3 b 491 73 460 3 491 34 b 421 143 491 110 460 143 b 350 73 382 143 350 112 b 421 3 350 34 382 3 z m 18 73 b 88 3 18 34 50 3 b 159 73 128 3 159 34 b 88 143 159 110 128 143 b 18 73 50 143 18 112 z m 184 73 b 254 3 184 34 216 3 b 325 73 294 3 325 34 b 254 143 325 110 293 143 b 184 73 216 143 184 112 z "},"!":{"ha":177,"x_min":0,"x_max":0,"o":"m 59 184 l 125 184 l 125 1389 l 59 1389 z m 22 73 b 92 3 22 34 53 3 b 162 73 132 3 162 34 b 92 143 162 110 132 143 b 22 73 53 143 22 112 z "},"¡":{"ha":177,"x_min":0,"x_max":0,"o":"m 59 1 l 125 1 l 125 1205 l 59 1205 z m 22 1317 b 92 1246 22 1279 53 1246 b 162 1317 131 1246 162 1277 b 92 1387 162 1355 131 1387 b 22 1317 53 1387 22 1356 z "},"?":{"ha":281,"x_min":0,"x_max":0,"o":"m 95 191 l 95 187 l 161 187 l 161 191 b 274 1201 161 732 274 860 b 140 1399 274 1329 227 1399 b 7 1221 32 1399 8 1287 l 7 996 l 73 996 l 73 1220 b 140 1333 74 1276 86 1333 b 208 1201 188 1333 208 1303 b 95 191 208 881 95 762 z m 60 73 b 130 3 60 34 91 3 b 200 73 170 3 200 34 b 130 143 200 110 170 143 b 60 73 91 143 60 112 z "},"¿":{"ha":281,"x_min":0,"x_max":0,"o":"m 141 -4 b 274 175 249 -4 273 107 l 274 399 l 208 399 l 208 175 b 141 62 208 118 195 62 b 73 194 94 62 73 92 b 186 1205 73 515 186 634 l 186 1208 l 121 1208 l 121 1205 b 7 194 121 663 7 535 b 141 -4 7 67 56 -4 z m 81 1322 b 151 1251 81 1285 113 1251 b 221 1322 190 1251 221 1283 b 151 1393 221 1361 190 1393 b 81 1322 112 1393 81 1362 z "},"·":{"ha":177,"x_min":0,"x_max":0,"o":"m 88 637 b 159 707 128 637 159 667 b 88 778 159 744 128 778 b 18 707 50 778 18 746 b 88 637 18 668 50 637 z "},"•":{"ha":240,"x_min":0,"x_max":0,"o":"m 121 606 b 222 708 178 606 222 651 b 121 810 222 762 177 810 b 18 708 64 810 18 765 b 121 606 18 652 64 606 z "},"*":{"ha":254,"x_min":0,"x_max":0,"o":"m 96 1227 l 96 1175 l 158 1175 l 158 1228 l 204 1201 l 235 1255 l 189 1281 l 235 1308 l 204 1363 l 158 1336 l 158 1389 l 96 1389 l 96 1336 l 50 1363 l 18 1308 l 66 1281 l 18 1254 l 50 1200 b 96 1227 64 1208 80 1218 z "},"#":{"ha":364,"x_min":0,"x_max":0,"o":"m 48 102 l 108 102 l 143 579 l 209 580 l 174 102 l 233 102 l 268 580 l 331 580 l 336 637 l 273 637 l 282 761 l 338 761 l 342 818 l 286 818 l 320 1280 l 261 1280 l 227 818 l 161 818 l 195 1280 l 135 1280 l 102 817 l 31 817 l 26 760 l 97 760 l 88 637 l 24 636 l 20 579 l 84 579 z m 148 637 l 156 760 l 222 760 l 213 637 z "},"/":{"ha":204,"x_min":0,"x_max":0,"o":"m -1 0 l 66 0 l 202 1388 l 138 1388 z "},"\\":{"ha":204,"x_min":0,"x_max":0,"o":"m 138 0 l 205 0 l 66 1388 l -1 1388 z "},"-":{"ha":216,"x_min":0,"x_max":0,"o":"m 22 667 l 194 667 l 194 733 l 22 733 z "},"­":{"ha":216,"x_min":0,"x_max":0,"o":"m 22 667 l 194 667 l 194 733 l 22 733 z "},"–":{"ha":227,"x_min":0,"x_max":0,"o":"m 18 667 l 209 667 l 209 733 l 18 733 z "},"—":{"ha":286,"x_min":0,"x_max":0,"o":"m 18 667 l 268 667 l 268 733 l 18 733 z "},"_":{"ha":213,"x_min":0,"x_max":0,"o":"m 18 0 l 194 0 l 194 66 l 18 66 z "},"(":{"ha":189,"x_min":0,"x_max":0,"o":"m 104 -65 l 171 -65 b 88 770 113 189 82 471 b 172 1452 94 1015 123 1243 l 105 1452 b 23 771 57 1244 28 1014 b 104 -65 17 474 46 189 z "},")":{"ha":189,"x_min":0,"x_max":0,"o":"m 18 -66 l 86 -66 b 167 615 132 143 162 374 b 86 1452 173 912 143 1197 l 18 1452 b 101 617 77 1197 107 915 b 18 -66 96 372 67 143 z "},"{":{"ha":228,"x_min":0,"x_max":0,"o":"m 162 -62 l 210 -62 l 210 -2 l 181 -2 b 126 80 149 -2 126 -4 l 126 609 b 89 700 126 649 113 686 b 126 790 113 713 126 750 l 126 1304 b 181 1390 126 1388 149 1390 l 210 1390 l 210 1447 l 162 1447 b 63 1319 110 1447 63 1431 l 63 786 b 18 728 61 717 33 728 l 18 671 b 63 613 33 671 61 682 l 63 65 b 162 -62 63 -11 80 -62 z "},"}":{"ha":228,"x_min":0,"x_max":0,"o":"m 18 -60 l 66 -60 b 164 68 117 -60 164 -45 l 164 601 b 210 659 167 670 194 659 l 210 716 b 164 774 194 716 167 705 l 164 1322 b 66 1449 164 1398 148 1449 l 18 1449 l 18 1389 l 46 1389 b 102 1306 78 1389 102 1390 l 102 778 b 138 687 102 738 115 701 b 102 596 115 674 102 637 l 102 83 b 46 -2 102 -1 78 -2 l 18 -2 z "},"[":{"ha":173,"x_min":0,"x_max":0,"o":"m 22 -65 l 162 -65 l 162 1 l 88 1 l 88 1389 l 162 1389 l 162 1455 l 22 1455 z "},"]":{"ha":173,"x_min":0,"x_max":0,"o":"m 11 -65 l 151 -65 l 151 1455 l 11 1455 l 11 1389 l 86 1389 l 86 1 l 11 1 z "},"‚":{"ha":179,"x_min":0,"x_max":0,"o":"m 25 -13 l 59 -66 b 161 69 91 -50 161 -7 b 91 145 161 116 130 145 b 18 75 52 145 18 114 b 65 13 18 45 38 22 b 25 -13 53 2 38 -4 z "},"„":{"ha":340,"x_min":0,"x_max":0,"o":"m 186 -12 l 220 -66 b 322 69 252 -49 322 -7 b 251 146 322 116 291 146 b 179 76 213 146 179 115 b 226 13 179 46 199 23 b 186 -12 213 2 199 -4 z m 18 76 b 65 13 18 46 38 23 b 25 -12 53 2 38 -4 l 59 -66 b 161 69 91 -49 161 -7 b 91 146 161 116 130 146 b 18 76 52 146 18 115 z "},"“":{"ha":331,"x_min":0,"x_max":0,"o":"m 244 1212 b 317 1282 283 1212 317 1243 b 270 1344 317 1312 297 1336 b 310 1371 282 1356 297 1363 l 276 1423 b 174 1289 244 1407 174 1365 b 244 1212 174 1242 205 1212 z m 15 1289 b 85 1212 15 1242 46 1212 b 157 1282 124 1212 157 1243 b 110 1344 157 1312 137 1336 b 151 1371 124 1356 137 1363 l 116 1423 b 15 1289 85 1407 15 1365 z "},"”":{"ha":330,"x_min":0,"x_max":0,"o":"m 180 1261 l 214 1208 b 316 1343 246 1224 316 1267 b 246 1420 316 1390 285 1420 b 173 1349 207 1420 173 1388 b 220 1287 173 1319 193 1296 b 180 1261 208 1276 193 1269 z m 15 1349 b 61 1287 15 1319 34 1296 b 21 1261 49 1276 34 1269 l 56 1208 b 157 1343 88 1224 157 1266 b 87 1420 157 1390 126 1420 b 15 1349 48 1420 15 1388 z "},"‘":{"ha":172,"x_min":0,"x_max":0,"o":"m 85 1212 b 157 1282 124 1212 157 1243 b 110 1344 157 1312 137 1336 b 151 1371 124 1356 137 1363 l 116 1423 b 15 1289 85 1407 15 1365 b 85 1212 15 1242 46 1212 z "},"’":{"ha":172,"x_min":0,"x_max":0,"o":"m 21 1268 l 56 1215 b 157 1350 88 1232 157 1273 b 87 1427 157 1397 126 1427 b 15 1357 48 1427 15 1395 b 61 1294 15 1327 34 1303 b 21 1268 49 1283 34 1276 z "},"«":{"ha":308,"x_min":0,"x_max":0,"o":"m 213 572 l 290 572 l 213 699 l 290 825 l 213 825 l 137 699 z m 11 699 l 88 572 l 164 572 l 88 699 l 164 825 l 88 825 z "},"»":{"ha":308,"x_min":0,"x_max":0,"o":"m 144 572 l 221 572 l 298 699 l 221 825 l 144 825 l 221 699 z m 18 572 l 95 572 l 172 699 l 95 825 l 18 825 l 95 699 z "},"‹":{"ha":183,"x_min":0,"x_max":0,"o":"m 88 572 l 164 572 l 88 699 l 164 825 l 88 825 l 11 699 z "},"›":{"ha":183,"x_min":0,"x_max":0,"o":"m 18 572 l 95 572 l 172 699 l 95 825 l 18 825 l 95 699 z "},"\"":{"ha":205,"x_min":0,"x_max":0,"o":"m 124 1261 l 189 1261 l 190 1399 l 124 1400 z m 15 1261 l 80 1261 l 81 1399 l 15 1400 z "},"'":{"ha":137,"x_min":0,"x_max":0,"o":"m 77 1254 l 123 1385 l 61 1407 l 15 1276 z "},"@":{"ha":438,"x_min":0,"x_max":0,"o":"m 186 211 l 385 211 l 385 273 l 186 273 b 104 318 145 273 119 291 l 168 318 l 192 605 l 251 605 l 275 318 l 339 318 l 309 605 l 319 605 b 416 985 406 605 416 637 b 259 1175 416 1070 374 1175 l 181 1176 b 22 985 64 1176 22 1070 b 24 403 22 923 24 455 b 186 211 24 319 64 211 z m 84 985 b 181 1114 84 1055 109 1114 l 259 1113 b 354 985 330 1113 354 1055 b 319 667 354 667 354 667 l 303 667 l 261 1072 l 182 1072 l 104 319 b 86 403 91 341 86 371 z m 197 667 l 221 974 l 246 667 z "},"&":{"ha":343,"x_min":0,"x_max":0,"o":"m 253 88 l 276 -7 l 332 8 l 271 270 b 306 695 289 387 306 549 l 243 695 b 235 484 243 621 237 531 b 237 399 233 467 236 423 l 232 404 b 223 477 232 421 228 452 l 173 721 b 257 1127 205 803 257 959 b 154 1399 257 1286 243 1399 b 47 1099 57 1399 48 1251 b 94 755 45 995 58 924 b 11 347 52 636 11 502 b 140 -6 11 107 58 -6 b 231 84 197 -6 220 39 b 238 175 238 113 238 154 b 241 176 238 176 239 176 b 253 88 243 145 241 137 z m 73 347 b 116 625 73 421 95 558 b 132 696 130 670 132 696 l 135 695 b 142 586 136 667 133 629 l 204 283 b 140 66 193 183 186 66 b 73 347 95 66 73 206 z m 109 1096 b 154 1330 109 1178 111 1330 b 194 1127 197 1330 194 1195 b 152 848 194 1053 177 914 b 143 784 148 836 145 805 b 139 783 141 784 139 783 b 133 855 138 802 136 839 b 109 1096 114 958 108 1023 z "},"¶":{"ha":314,"x_min":0,"x_max":0,"o":"m 137 683 l 137 0 l 199 0 l 199 1387 b 11 1254 49 1387 12 1322 l 11 814 b 137 683 10 757 37 699 z m 73 813 l 73 1253 b 137 1322 74 1293 81 1315 l 137 744 b 73 813 80 751 72 773 z m 230 0 l 292 0 l 292 1387 l 230 1387 z "},"§":{"ha":296,"x_min":0,"x_max":0,"o":"m 156 -12 b 270 221 243 -12 270 80 b 202 437 270 333 238 388 b 273 709 245 484 274 596 l 273 718 b 99 1189 265 992 99 1005 b 149 1327 99 1232 102 1327 b 212 1041 210 1327 212 1196 l 278 1041 b 149 1399 278 1262 250 1399 b 33 1189 63 1399 33 1322 b 115 961 33 1081 73 1021 b 31 705 67 926 30 819 l 31 679 b 205 221 44 376 205 427 b 156 60 205 165 205 60 b 84 347 102 60 84 188 l 18 347 b 156 -12 18 62 79 -12 z m 96 688 l 96 702 b 148 886 96 757 117 886 b 170 872 157 886 164 881 b 192 816 179 855 186 836 b 207 717 202 779 206 738 l 207 711 b 157 514 207 642 190 514 b 136 529 150 514 143 520 b 113 586 126 545 118 564 b 96 688 104 616 98 653 z "},"©":{"ha":414,"x_min":0,"x_max":0,"o":"m 176 245 l 243 245 b 400 440 353 245 400 356 l 400 943 b 243 1139 400 1028 358 1139 l 176 1140 b 15 943 61 1140 15 1029 l 15 438 b 176 245 15 355 55 245 z m 77 438 l 77 943 b 176 1077 77 1012 105 1077 l 243 1077 b 338 943 313 1077 338 1013 l 338 440 b 243 307 338 372 309 307 l 176 307 b 77 438 100 307 77 369 z m 119 450 b 205 345 119 390 143 346 l 206 345 b 296 450 268 345 296 388 l 296 645 l 234 645 l 234 450 b 206 407 234 415 231 407 b 181 450 183 407 181 414 l 181 949 b 206 978 181 970 183 978 l 207 978 b 235 954 232 978 235 971 l 235 747 l 297 747 l 297 954 b 207 1040 297 999 268 1040 l 206 1040 b 119 949 145 1040 119 996 z "},"®":{"ha":414,"x_min":0,"x_max":0,"o":"m 176 245 l 243 245 b 400 440 353 245 400 356 l 400 944 b 243 1140 400 1029 358 1140 l 176 1140 b 15 944 61 1140 15 1029 l 15 438 b 176 245 15 355 55 245 z m 77 438 l 77 944 b 176 1078 77 1013 105 1078 l 243 1077 b 338 944 313 1077 338 1014 l 338 440 b 243 307 338 372 309 307 l 176 307 b 77 438 100 307 77 369 z m 121 670 l 121 349 l 180 349 b 179 656 180 473 179 609 l 192 656 l 244 346 l 303 346 l 250 661 b 303 735 289 674 303 709 l 303 950 b 219 1036 303 1004 279 1036 l 121 1036 z m 179 715 l 179 977 l 219 977 b 245 950 245 977 245 977 l 245 735 b 219 715 245 724 243 715 z "},"™":{"ha":397,"x_min":0,"x_max":0,"o":"m 178 929 l 240 929 l 240 1136 b 240 1180 240 1145 242 1170 l 243 1180 b 246 1154 243 1175 246 1161 l 257 954 l 303 954 l 314 1150 b 317 1180 314 1158 317 1173 l 320 1180 b 320 1137 319 1170 320 1149 l 320 929 l 382 929 l 382 1387 l 298 1387 l 285 1197 b 281 1157 284 1186 281 1166 l 279 1157 b 276 1197 279 1166 276 1186 l 263 1387 l 178 1387 z m 15 1317 l 56 1317 l 56 929 l 123 929 l 123 1317 l 164 1317 l 164 1387 l 15 1387 z "},"°":{"ha":198,"x_min":0,"x_max":0,"o":"m 99 1029 b 183 1114 145 1029 183 1069 l 183 1311 b 99 1396 183 1356 145 1396 b 15 1311 52 1396 15 1356 l 15 1114 b 99 1029 15 1069 52 1029 z m 77 1114 l 77 1311 b 99 1334 77 1327 83 1334 b 121 1311 114 1334 121 1327 l 121 1114 b 99 1091 121 1098 114 1091 b 77 1114 83 1091 77 1098 z "},"|":{"ha":110,"x_min":0,"x_max":0,"o":"m 22 0 l 88 0 l 88 1389 l 22 1389 z "},"¦":{"ha":110,"x_min":0,"x_max":0,"o":"m 22 853 l 88 853 l 88 1388 l 22 1388 z m 22 0 l 88 0 l 88 535 l 22 535 z "},"†":{"ha":221,"x_min":0,"x_max":0,"o":"m 77 834 l 143 834 l 143 1174 l 206 1174 l 206 1240 l 143 1240 l 143 1388 l 77 1388 l 77 1240 l 15 1240 l 15 1174 l 77 1174 z "},"‡":{"ha":221,"x_min":0,"x_max":0,"o":"m 77 834 l 143 834 l 143 991 l 206 991 l 206 1057 l 143 1057 l 143 1174 l 206 1174 l 206 1240 l 143 1240 l 143 1388 l 77 1388 l 77 1240 l 15 1240 l 15 1174 l 77 1174 l 77 1057 l 15 1057 l 15 991 l 77 991 z "},"¢":{"ha":322,"x_min":0,"x_max":0,"o":"m 132 286 l 132 219 l 194 219 l 194 287 b 304 434 281 302 304 379 l 304 640 l 242 640 l 242 434 b 194 350 242 395 233 361 l 194 1045 b 242 961 233 1034 242 1001 l 242 753 l 304 753 l 304 961 b 194 1109 304 1018 281 1094 l 194 1168 l 132 1168 l 132 1110 b 18 950 40 1094 18 1007 l 18 446 b 132 286 18 388 40 301 z m 80 446 l 80 950 b 132 1046 80 993 90 1034 l 132 349 b 80 446 90 362 80 403 z "},"¤":{"ha":368,"x_min":0,"x_max":0,"o":"m 57 366 l 113 417 b 164 405 127 410 144 405 l 206 405 b 257 420 226 405 243 411 l 310 367 l 354 411 l 298 467 b 317 548 311 493 317 523 l 317 837 b 299 917 317 862 311 892 l 354 973 l 310 1017 l 258 965 b 206 980 244 974 227 980 l 164 980 b 113 966 144 980 127 975 l 57 1018 l 15 971 l 71 920 b 51 837 57 893 51 863 l 51 546 b 70 463 51 520 56 490 l 15 412 z m 113 546 l 113 837 b 164 918 113 879 127 918 l 206 917 b 255 837 242 917 255 880 l 255 548 b 206 467 255 506 240 467 l 164 467 b 113 546 125 467 113 504 z "},"$":{"ha":314,"x_min":0,"x_max":0,"o":"m 125 -4 l 125 -53 l 187 -53 l 187 -6 b 296 137 261 7 296 75 l 296 575 b 188 720 296 656 242 691 l 188 1327 b 221 1227 216 1316 221 1283 l 221 1039 l 287 1039 l 287 1228 b 188 1396 287 1306 268 1381 l 188 1439 l 126 1439 l 126 1396 b 18 1268 60 1383 18 1328 l 18 829 b 125 676 18 744 72 706 l 125 63 b 85 164 96 72 85 99 l 85 387 l 19 387 l 19 164 b 125 -4 20 64 60 10 z m 84 829 l 84 1268 b 126 1329 84 1299 98 1321 l 126 757 b 84 829 102 776 84 797 z m 187 61 l 187 641 b 230 575 213 624 230 605 l 230 137 b 187 61 230 99 217 72 z "},"€":{"ha":338,"x_min":0,"x_max":0,"o":"m 189 -7 b 319 151 294 -7 319 88 l 319 511 l 254 511 l 254 151 b 189 58 254 99 242 58 l 189 58 b 125 151 136 58 125 99 l 125 604 l 285 604 l 285 666 l 125 666 l 125 724 l 285 724 l 285 786 l 125 786 l 125 1238 b 189 1331 125 1290 136 1331 l 189 1331 b 254 1238 242 1330 254 1290 l 254 878 l 319 878 l 319 1238 b 189 1397 319 1302 294 1396 l 189 1397 b 59 1238 83 1397 59 1301 l 59 786 l 18 786 l 18 724 l 59 724 l 59 666 l 18 666 l 18 604 l 59 604 l 59 151 b 189 -7 59 88 83 -7 z "},"£":{"ha":314,"x_min":0,"x_max":0,"o":"m 27 65 l 27 0 l 286 0 l 286 62 l 88 62 l 86 63 b 97 91 89 66 94 80 b 134 555 110 134 134 376 b 132 659 134 588 133 623 l 267 659 l 267 721 l 129 721 b 103 1241 121 910 103 1118 b 168 1333 103 1293 113 1333 b 233 1238 221 1333 233 1291 l 233 1039 l 295 1039 l 295 1238 b 168 1395 295 1302 272 1395 b 41 1241 65 1395 41 1306 b 67 721 41 1110 58 902 l 18 721 l 18 659 l 69 659 b 72 555 71 622 72 587 b 27 65 72 363 49 115 z "},"¥":{"ha":296,"x_min":0,"x_max":0,"o":"m 115 0 l 181 0 l 181 560 l 276 560 l 276 621 l 181 621 l 181 681 l 276 681 l 276 741 l 209 741 l 300 1389 l 233 1389 l 148 775 l 63 1389 l -4 1389 l 86 741 l 19 741 l 19 681 l 115 681 l 115 621 l 19 621 l 19 560 l 115 560 z "},"+":{"ha":251,"x_min":0,"x_max":0,"o":"m 94 586 l 156 586 l 156 669 l 232 669 l 232 731 l 156 731 l 156 814 l 94 814 l 94 731 l 18 731 l 18 669 l 94 669 z "},"−":{"ha":224,"x_min":0,"x_max":0,"o":"m 18 670 l 205 670 l 205 732 l 18 732 z "},"×":{"ha":273,"x_min":0,"x_max":0,"o":"m 210 579 l 254 623 l 180 697 l 249 765 l 205 809 l 136 740 l 62 815 l 18 770 l 92 697 l 24 629 l 68 584 l 136 653 z "},"÷":{"ha":275,"x_min":0,"x_max":0,"o":"m 18 669 l 257 669 l 257 731 l 18 731 z m 85 588 b 137 537 85 560 108 537 b 189 588 167 537 189 559 b 137 641 189 616 167 641 b 85 588 108 641 85 618 z m 85 808 b 137 756 85 779 108 756 b 189 808 167 756 189 779 b 137 860 189 836 167 860 b 85 808 108 860 85 837 z "},"=":{"ha":238,"x_min":0,"x_max":0,"o":"m 18 725 l 219 725 l 219 787 l 18 787 z m 18 613 l 219 613 l 219 675 l 18 675 z "},"≠":{"ha":238,"x_min":0,"x_max":0,"o":"m 45 575 l 108 575 l 124 613 l 219 613 l 219 675 l 150 675 l 171 725 l 219 725 l 219 787 l 197 787 l 213 827 l 150 827 l 134 787 l 18 787 l 18 725 l 107 725 l 87 675 l 18 675 l 18 613 l 61 613 z "},">":{"ha":194,"x_min":0,"x_max":0,"o":"m 18 569 l 191 701 l 18 833 l 18 755 l 88 701 l 18 648 z "},"<":{"ha":194,"x_min":0,"x_max":0,"o":"m 176 569 l 176 648 l 106 701 l 176 755 l 176 833 l 4 701 z "},"≥":{"ha":240,"x_min":0,"x_max":0,"o":"m 18 655 l 237 749 l 18 842 l 18 774 l 94 749 l 18 722 z m 18 577 l 205 577 l 205 639 l 18 639 z "},"≤":{"ha":240,"x_min":0,"x_max":0,"o":"m 222 655 l 222 722 l 147 749 l 222 774 l 222 842 l 4 749 z m 35 577 l 222 577 l 222 639 l 35 639 z "},"±":{"ha":251,"x_min":0,"x_max":0,"o":"m 94 639 l 156 639 l 156 721 l 232 721 l 232 784 l 156 784 l 156 866 l 94 866 l 94 784 l 18 784 l 18 721 l 94 721 z m 30 550 l 221 550 l 221 612 l 30 612 z "},"≈":{"ha":216,"x_min":0,"x_max":0,"o":"m 146 707 b 198 729 164 707 183 711 l 198 797 l 177 781 b 146 768 166 773 158 768 b 70 803 129 768 99 803 b 18 781 53 803 34 799 l 18 718 l 39 731 b 71 741 52 738 60 741 b 146 707 91 741 117 707 z m 18 603 l 39 616 b 71 626 52 624 60 626 b 146 592 91 626 117 592 b 198 614 164 592 183 596 l 198 682 l 177 666 b 146 654 166 658 158 654 b 70 689 129 654 99 689 b 18 667 53 689 34 684 z "},"~":{"ha":216,"x_min":0,"x_max":0,"o":"m 146 651 b 198 673 164 651 183 656 l 198 741 l 177 725 b 146 713 166 717 158 713 b 70 748 129 713 99 748 b 18 726 53 748 34 743 l 18 662 l 39 675 b 71 686 52 683 60 686 b 146 651 91 686 117 651 z "},"¬":{"ha":320,"x_min":0,"x_max":0,"o":"m 240 572 l 302 572 l 302 731 l 18 731 l 18 669 l 240 669 z "},"^":{"ha":272,"x_min":0,"x_max":0,"o":"m 4 1241 l 82 1241 l 136 1311 l 189 1241 l 268 1241 l 136 1413 z "},"∞":{"ha":471,"x_min":0,"x_max":0,"o":"m 121 490 b 236 605 183 490 212 545 b 351 490 260 545 289 490 b 457 689 404 490 457 563 b 351 887 457 806 406 887 b 236 773 289 887 260 832 b 121 887 212 832 183 887 b 15 689 66 887 15 806 b 121 490 15 563 69 490 z m 77 689 b 121 825 77 778 105 825 b 202 689 155 825 170 766 b 121 553 170 612 155 553 b 77 689 104 553 77 595 z m 270 689 b 351 825 303 766 317 825 b 395 689 368 825 395 778 b 351 553 395 595 368 553 b 270 689 317 553 303 612 z "},"%":{"ha":410,"x_min":0,"x_max":0,"o":"m 65 675 l 131 675 l 343 1384 l 277 1384 z m 18 1152 b 102 1066 18 1107 56 1066 b 187 1152 149 1066 187 1107 l 187 1314 b 102 1400 187 1360 149 1400 b 18 1314 56 1400 18 1360 z m 80 1152 l 80 1314 b 102 1338 80 1330 87 1338 b 125 1314 118 1338 125 1330 l 125 1152 b 102 1128 125 1136 118 1128 b 80 1152 87 1128 80 1136 z m 223 751 b 308 666 223 706 261 666 b 392 751 355 666 392 706 l 392 914 b 308 1000 392 959 355 1000 b 223 914 261 1000 223 959 z m 285 751 l 285 914 b 308 938 285 931 292 938 b 330 914 323 938 330 931 l 330 751 b 308 728 330 735 323 728 b 285 751 292 728 285 735 z "},"‰":{"ha":606,"x_min":0,"x_max":0,"o":"m 65 675 l 131 675 l 343 1384 l 277 1384 z m 18 1152 b 102 1066 18 1107 56 1066 b 187 1152 149 1066 187 1107 l 187 1314 b 102 1400 187 1360 149 1400 b 18 1314 56 1400 18 1360 z m 80 1152 l 80 1314 b 102 1338 80 1330 87 1338 b 125 1314 118 1338 125 1330 l 125 1152 b 102 1128 125 1136 118 1128 b 80 1152 87 1128 80 1136 z m 223 751 b 308 666 223 706 261 666 b 392 751 355 666 392 706 l 392 914 b 308 1000 392 959 355 1000 b 223 914 261 1000 223 959 z m 285 751 l 285 914 b 308 938 285 931 292 938 b 330 914 323 938 330 931 l 330 751 b 308 728 330 735 323 728 b 285 751 292 728 285 735 z m 419 751 b 504 666 419 706 457 666 b 588 751 550 666 588 706 l 588 914 b 504 1000 588 959 550 1000 b 419 914 457 1000 419 959 z m 481 751 l 481 914 b 504 938 481 931 488 938 b 526 914 519 938 526 931 l 526 751 b 504 728 526 735 519 728 b 481 751 488 728 481 735 z "},"↑":{"ha":362,"x_min":0,"x_max":0,"o":"m 150 0 l 212 0 l 212 1294 l 344 1164 l 344 1251 l 181 1412 l 18 1251 l 18 1164 l 150 1294 z "},"↗":{"ha":423,"x_min":0,"x_max":0,"o":"m 48 495 l 342 789 l 343 604 l 405 666 l 404 895 l 175 896 l 113 834 l 298 833 l 4 539 z "},"→":{"ha":557,"x_min":0,"x_max":0,"o":"m 305 544 l 392 544 l 553 707 l 392 869 l 305 869 l 435 738 l 18 738 l 18 675 l 435 675 z "},"↘":{"ha":426,"x_min":0,"x_max":0,"o":"m 175 512 l 404 512 l 405 742 l 343 804 l 342 618 l 48 913 l 4 869 l 298 575 l 113 574 z "},"↓":{"ha":362,"x_min":0,"x_max":0,"o":"m 181 -22 l 344 139 l 344 227 l 212 96 l 212 1390 l 150 1390 l 150 96 l 18 227 l 18 139 z "},"↙":{"ha":423,"x_min":0,"x_max":0,"o":"m 249 512 l 311 574 l 125 575 l 420 869 l 376 913 l 81 618 l 80 804 l 18 742 l 19 513 z "},"←":{"ha":557,"x_min":0,"x_max":0,"o":"m 165 533 l 252 533 l 122 664 l 539 664 l 539 727 l 122 727 l 252 858 l 165 858 l 4 696 z "},"↖":{"ha":423,"x_min":0,"x_max":0,"o":"m 376 495 l 420 539 l 125 833 l 311 834 l 249 896 l 19 895 l 18 666 l 80 604 l 81 789 z "},"↔":{"ha":554,"x_min":0,"x_max":0,"o":"m 165 544 l 252 544 l 122 675 l 433 675 l 302 544 l 390 544 l 550 707 l 390 869 l 302 869 l 433 738 l 122 738 l 252 869 l 165 869 l 4 707 z "},"↕":{"ha":362,"x_min":0,"x_max":0,"o":"m 181 -23 l 344 138 l 344 226 l 212 95 l 212 1294 l 344 1164 l 344 1251 l 181 1412 l 18 1251 l 18 1164 l 150 1294 l 150 95 l 18 226 l 18 138 z "},"̈":{"ha":0,"x_min":0,"x_max":0,"o":"m 140 1404 b 180 1444 162 1404 180 1421 b 140 1484 180 1465 162 1484 b 99 1444 118 1484 99 1466 b 140 1404 99 1422 118 1404 z m 0 1444 b 40 1404 0 1422 18 1404 b 80 1444 62 1404 80 1421 b 40 1483 80 1464 62 1483 b 0 1444 18 1483 0 1466 z "},"̇":{"ha":0,"x_min":0,"x_max":0,"o":"m 53 1406 b 105 1458 83 1406 105 1429 b 53 1512 105 1486 82 1512 b 0 1458 23 1512 0 1488 b 53 1406 0 1430 23 1406 z "},"̀":{"ha":0,"x_min":0,"x_max":0,"o":"m 141 1403 l 151 1453 l 6 1485 l -5 1434 z "},"́":{"ha":0,"x_min":0,"x_max":0,"o":"m 8 1403 l 150 1434 l 139 1485 l -3 1453 z "},"̋":{"ha":0,"x_min":0,"x_max":0,"o":"m 174 1413 l 257 1515 l 209 1554 l 126 1452 z m 15 1458 l 63 1419 l 145 1520 l 98 1560 z "},"̂":{"ha":0,"x_min":0,"x_max":0,"o":"m 19 1405 l 87 1433 l 154 1405 l 174 1452 l 87 1488 l 0 1452 z "},"̌":{"ha":0,"x_min":0,"x_max":0,"o":"m 86 1405 l 171 1440 l 151 1488 l 86 1461 l 20 1488 l 1 1440 z "},"̆":{"ha":0,"x_min":0,"x_max":0,"o":"m 91 1405 b 171 1485 136 1405 171 1444 l 120 1485 b 91 1456 120 1467 110 1456 b 62 1485 72 1456 62 1467 l 11 1485 b 91 1405 11 1444 46 1405 z "},"̊":{"ha":0,"x_min":0,"x_max":0,"o":"m 76 1404 b 151 1479 118 1404 151 1438 b 76 1553 151 1520 117 1553 b 1 1479 35 1553 1 1520 b 76 1404 1 1438 35 1404 z m 56 1479 b 76 1499 56 1493 61 1499 b 96 1479 91 1499 96 1493 b 76 1459 96 1464 91 1459 b 56 1479 61 1459 56 1464 z "},"̃":{"ha":0,"x_min":0,"x_max":0,"o":"m 59 1414 b 125 1437 91 1414 109 1437 b 156 1423 140 1437 148 1431 l 194 1458 b 125 1488 181 1472 156 1488 b 59 1466 93 1488 75 1466 b 29 1479 43 1466 35 1471 l -11 1447 b 59 1414 1 1431 26 1414 z "},"̄":{"ha":0,"x_min":0,"x_max":0,"o":"m -7 1416 l 151 1416 l 151 1467 l -7 1467 z "},"̦":{"ha":0,"x_min":0,"x_max":0,"o":"m 10 -177 l 45 -230 b 146 -95 77 -213 146 -171 b 76 -18 146 -48 115 -18 b 4 -88 37 -18 4 -50 b 50 -151 4 -118 23 -142 b 10 -177 38 -162 23 -169 z "},"̧":{"ha":0,"x_min":0,"x_max":0,"o":"m 69 -157 b 138 -89 107 -157 138 -127 b 94 -31 138 -59 120 -39 l 103 10 l 53 20 l 31 -77 l 63 -76 b 86 -91 83 -76 86 -85 b 67 -108 86 -98 81 -108 b 29 -93 53 -108 42 -101 l 14 -137 l 15 -140 b 69 -157 18 -143 40 -157 z "},"̨":{"ha":0,"x_min":0,"x_max":0,"o":"m 63 -117 b 112 -100 80 -117 91 -110 l 88 -51 b 63 -62 69 -60 66 -62 b 55 -54 56 -62 55 -61 b 102 14 55 -45 74 -25 l 57 46 b 0 -54 26 2 0 -24 b 63 -117 1 -91 34 -117 z "},"¨":{"ha":180,"x_min":0,"x_max":0,"o":"m 140 1404 b 180 1444 162 1404 180 1421 b 140 1484 180 1465 162 1484 b 99 1444 118 1484 99 1466 b 140 1404 99 1422 118 1404 z m 0 1444 b 40 1404 0 1422 18 1404 b 80 1444 62 1404 80 1421 b 40 1483 80 1464 62 1483 b 0 1444 18 1483 0 1466 z "},"˙":{"ha":105,"x_min":0,"x_max":0,"o":"m 53 1406 b 105 1458 83 1406 105 1429 b 53 1512 105 1486 82 1512 b 0 1458 23 1512 0 1488 b 53 1406 0 1430 23 1406 z "},"`":{"ha":146,"x_min":0,"x_max":0,"o":"m 141 1403 l 151 1453 l 6 1485 l -5 1434 z "},"´":{"ha":146,"x_min":0,"x_max":0,"o":"m 8 1403 l 150 1434 l 139 1485 l -3 1453 z "},"˝":{"ha":271,"x_min":0,"x_max":0,"o":"m 174 1413 l 257 1515 l 209 1554 l 126 1452 z m 15 1458 l 63 1419 l 145 1520 l 98 1560 z "},"ˆ":{"ha":174,"x_min":0,"x_max":0,"o":"m 19 1405 l 87 1433 l 154 1405 l 174 1452 l 87 1488 l 0 1452 z "},"ˇ":{"ha":172,"x_min":0,"x_max":0,"o":"m 86 1405 l 171 1440 l 151 1488 l 86 1461 l 20 1488 l 1 1440 z "},"˘":{"ha":181,"x_min":0,"x_max":0,"o":"m 91 1405 b 171 1485 136 1405 171 1444 l 120 1485 b 91 1456 120 1467 110 1456 b 62 1485 72 1456 62 1467 l 11 1485 b 91 1405 11 1444 46 1405 z "},"˚":{"ha":154,"x_min":0,"x_max":0,"o":"m 76 1404 b 151 1479 118 1404 151 1438 b 76 1553 151 1520 117 1553 b 1 1479 35 1553 1 1520 b 76 1404 1 1438 35 1404 z m 56 1479 b 76 1499 56 1493 61 1499 b 96 1479 91 1499 96 1493 b 76 1459 96 1464 91 1459 b 56 1479 61 1459 56 1464 z "},"˜":{"ha":183,"x_min":0,"x_max":0,"o":"m 59 1414 b 125 1437 91 1414 109 1437 b 156 1423 140 1437 148 1431 l 194 1458 b 125 1488 181 1472 156 1488 b 59 1466 93 1488 75 1466 b 29 1479 43 1466 35 1471 l -11 1447 b 59 1414 1 1431 26 1414 z "},"¯":{"ha":143,"x_min":0,"x_max":0,"o":"m -7 1416 l 151 1416 l 151 1467 l -7 1467 z "},"¸":{"ha":131,"x_min":0,"x_max":0,"o":"m 69 -157 b 138 -89 107 -157 138 -127 b 94 -31 138 -59 120 -39 l 103 10 l 53 20 l 31 -77 l 63 -76 b 86 -91 83 -76 86 -85 b 67 -108 86 -98 81 -108 b 29 -93 53 -108 42 -101 l 14 -137 l 15 -140 b 69 -157 18 -143 40 -157 z "},"˛":{"ha":132,"x_min":0,"x_max":0,"o":"m 63 -117 b 112 -100 80 -117 91 -110 l 88 -51 b 63 -62 69 -60 66 -62 b 55 -54 56 -62 55 -61 b 102 14 55 -45 74 -25 l 57 46 b 0 -54 26 2 0 -24 b 63 -117 1 -91 34 -117 z "}}}
